%TF.GenerationSoftware,KiCad,Pcbnew,(5.99.0-11336-g5116fa6d12)*%
%TF.CreationDate,2021-07-16T01:16:28+02:00*%
%TF.ProjectId,WS2811_3W,57533238-3131-45f3-9357-2e6b69636164,rev?*%
%TF.SameCoordinates,Original*%
%TF.FileFunction,Paste,Top*%
%TF.FilePolarity,Positive*%
%FSLAX46Y46*%
G04 Gerber Fmt 4.6, Leading zero omitted, Abs format (unit mm)*
G04 Created by KiCad (PCBNEW (5.99.0-11336-g5116fa6d12)) date 2021-07-16 01:16:28*
%MOMM*%
%LPD*%
G01*
G04 APERTURE LIST*
G04 Aperture macros list*
%AMRoundRect*
0 Rectangle with rounded corners*
0 $1 Rounding radius*
0 $2 $3 $4 $5 $6 $7 $8 $9 X,Y pos of 4 corners*
0 Add a 4 corners polygon primitive as box body*
4,1,4,$2,$3,$4,$5,$6,$7,$8,$9,$2,$3,0*
0 Add four circle primitives for the rounded corners*
1,1,$1+$1,$2,$3*
1,1,$1+$1,$4,$5*
1,1,$1+$1,$6,$7*
1,1,$1+$1,$8,$9*
0 Add four rect primitives between the rounded corners*
20,1,$1+$1,$2,$3,$4,$5,0*
20,1,$1+$1,$4,$5,$6,$7,0*
20,1,$1+$1,$6,$7,$8,$9,0*
20,1,$1+$1,$8,$9,$2,$3,0*%
G04 Aperture macros list end*
%ADD10R,2.200000X1.200000*%
%ADD11R,3.050000X2.750000*%
%ADD12R,0.900000X1.200000*%
%ADD13R,1.200000X0.900000*%
%ADD14RoundRect,0.250000X-0.250000X-0.750000X0.250000X-0.750000X0.250000X0.750000X-0.250000X0.750000X0*%
%ADD15RoundRect,0.225000X-0.250000X0.225000X-0.250000X-0.225000X0.250000X-0.225000X0.250000X0.225000X0*%
%ADD16RoundRect,0.225000X0.225000X0.250000X-0.225000X0.250000X-0.225000X-0.250000X0.225000X-0.250000X0*%
%ADD17R,2.500000X1.500000*%
%ADD18RoundRect,0.250000X0.250000X0.750000X-0.250000X0.750000X-0.250000X-0.750000X0.250000X-0.750000X0*%
%ADD19RoundRect,0.225000X0.250000X-0.225000X0.250000X0.225000X-0.250000X0.225000X-0.250000X-0.225000X0*%
%ADD20RoundRect,0.500000X-0.500000X-1.500000X0.500000X-1.500000X0.500000X1.500000X-0.500000X1.500000X0*%
%ADD21RoundRect,0.250000X-0.312500X-0.625000X0.312500X-0.625000X0.312500X0.625000X-0.312500X0.625000X0*%
%ADD22RoundRect,0.242500X-0.422500X0.242500X-0.422500X-0.242500X0.422500X-0.242500X0.422500X0.242500X0*%
%ADD23RoundRect,0.150000X-0.150000X0.825000X-0.150000X-0.825000X0.150000X-0.825000X0.150000X0.825000X0*%
%ADD24RoundRect,0.250000X0.625000X-0.312500X0.625000X0.312500X-0.625000X0.312500X-0.625000X-0.312500X0*%
%ADD25RoundRect,0.225000X-0.225000X-0.250000X0.225000X-0.250000X0.225000X0.250000X-0.225000X0.250000X0*%
%ADD26RoundRect,0.200000X0.200000X0.275000X-0.200000X0.275000X-0.200000X-0.275000X0.200000X-0.275000X0*%
%ADD27R,1.500000X2.500000*%
%ADD28RoundRect,0.242500X-0.242500X-0.422500X0.242500X-0.422500X0.242500X0.422500X-0.242500X0.422500X0*%
%ADD29RoundRect,0.150000X-0.825000X-0.150000X0.825000X-0.150000X0.825000X0.150000X-0.825000X0.150000X0*%
%ADD30RoundRect,0.500000X0.500000X1.500000X-0.500000X1.500000X-0.500000X-1.500000X0.500000X-1.500000X0*%
%ADD31RoundRect,0.200000X0.275000X-0.200000X0.275000X0.200000X-0.275000X0.200000X-0.275000X-0.200000X0*%
G04 APERTURE END LIST*
D10*
%TO.C,U4*%
X88060000Y-102190000D03*
X88060000Y-97630000D03*
D11*
X80085000Y-98385000D03*
X83435000Y-101435000D03*
X80085000Y-101435000D03*
X83435000Y-98385000D03*
%TD*%
D12*
%TO.C,D6*%
X107518401Y-76454799D03*
X110818401Y-76454799D03*
%TD*%
D13*
%TO.C,D5*%
X75539600Y-91669600D03*
X75539600Y-94969600D03*
%TD*%
D12*
%TO.C,D4*%
X87250000Y-72694800D03*
X90550000Y-72694800D03*
%TD*%
D14*
%TO.C,J4*%
X92760800Y-108915200D03*
%TD*%
D15*
%TO.C,C17*%
X103478801Y-75070199D03*
X103478801Y-76620199D03*
%TD*%
D14*
%TO.C,J8*%
X84643999Y-63754000D03*
%TD*%
%TO.C,J3*%
X95250000Y-108915200D03*
%TD*%
D16*
%TO.C,C14*%
X77025800Y-89458800D03*
X75475800Y-89458800D03*
%TD*%
D14*
%TO.C,J12*%
X102643999Y-63754000D03*
%TD*%
D15*
%TO.C,C3*%
X97739200Y-103161800D03*
X97739200Y-104711800D03*
%TD*%
D17*
%TO.C,L1*%
X89204800Y-70372800D03*
X89204800Y-65872800D03*
%TD*%
D18*
%TO.C,J7*%
X82643999Y-63754000D03*
%TD*%
D16*
%TO.C,C15*%
X81902600Y-90119200D03*
X80352600Y-90119200D03*
%TD*%
D14*
%TO.C,J11*%
X100643999Y-63754000D03*
%TD*%
D19*
%TO.C,C2*%
X111302800Y-87643000D03*
X111302800Y-86093000D03*
%TD*%
D15*
%TO.C,C19*%
X105968001Y-70091799D03*
X105968001Y-71641799D03*
%TD*%
%TO.C,C8*%
X88540000Y-104254000D03*
X88540000Y-105804000D03*
%TD*%
D20*
%TO.C,J6*%
X84531200Y-109194600D03*
%TD*%
D21*
%TO.C,R3*%
X78852300Y-87985600D03*
X81777300Y-87985600D03*
%TD*%
D14*
%TO.C,J10*%
X93643999Y-63754000D03*
%TD*%
D15*
%TO.C,C9*%
X90043000Y-104254000D03*
X90043000Y-105804000D03*
%TD*%
%TO.C,C5*%
X86995000Y-104254000D03*
X86995000Y-105804000D03*
%TD*%
D22*
%TO.C,U6*%
X78498200Y-82356400D03*
X78498200Y-83556400D03*
X76848200Y-83556400D03*
X76848200Y-82356400D03*
D23*
X79578200Y-80481400D03*
X78308200Y-80481400D03*
X77038200Y-80481400D03*
X75768200Y-80481400D03*
X75768200Y-85431400D03*
X77038200Y-85431400D03*
X78308200Y-85431400D03*
X79578200Y-85431400D03*
%TD*%
D24*
%TO.C,R5*%
X103834401Y-73142099D03*
X103834401Y-70217099D03*
%TD*%
D16*
%TO.C,R1*%
X102527400Y-106222800D03*
X100977400Y-106222800D03*
%TD*%
%TO.C,C12*%
X77813200Y-78181200D03*
X76263200Y-78181200D03*
%TD*%
D25*
%TO.C,C16*%
X96253000Y-70612000D03*
X97803000Y-70612000D03*
%TD*%
D26*
%TO.C,R7*%
X107352600Y-84378800D03*
X105702600Y-84378800D03*
%TD*%
D16*
%TO.C,C13*%
X76924200Y-87630000D03*
X75374200Y-87630000D03*
%TD*%
D27*
%TO.C,L2*%
X77861600Y-93624400D03*
X82361600Y-93624400D03*
%TD*%
D15*
%TO.C,C6*%
X83210400Y-71310200D03*
X83210400Y-72860200D03*
%TD*%
D23*
%TO.C,U3*%
X95986600Y-98261400D03*
X94716600Y-98261400D03*
X93446600Y-98261400D03*
X92176600Y-98261400D03*
X92176600Y-103211400D03*
X93446600Y-103211400D03*
X94716600Y-103211400D03*
X95986600Y-103211400D03*
%TD*%
D28*
%TO.C,U7*%
X98205201Y-73496199D03*
X99405201Y-73496199D03*
X98205201Y-75146199D03*
X99405201Y-75146199D03*
D29*
X96330201Y-72416199D03*
X96330201Y-73686199D03*
X96330201Y-74956199D03*
X96330201Y-76226199D03*
X101280201Y-76226199D03*
X101280201Y-74956199D03*
X101280201Y-73686199D03*
X101280201Y-72416199D03*
%TD*%
D30*
%TO.C,J5*%
X81102200Y-109143800D03*
%TD*%
D15*
%TO.C,C1*%
X105562400Y-103212600D03*
X105562400Y-104762600D03*
%TD*%
D18*
%TO.C,J2*%
X100685600Y-108915200D03*
%TD*%
D15*
%TO.C,C11*%
X85039200Y-71208600D03*
X85039200Y-72758600D03*
%TD*%
D16*
%TO.C,R2*%
X94805800Y-106222800D03*
X93255800Y-106222800D03*
%TD*%
D28*
%TO.C,U5*%
X77936800Y-69736200D03*
X79136800Y-69736200D03*
X79136800Y-71386200D03*
X77936800Y-71386200D03*
D29*
X76061800Y-68656200D03*
X76061800Y-69926200D03*
X76061800Y-71196200D03*
X76061800Y-72466200D03*
X81011800Y-72466200D03*
X81011800Y-71196200D03*
X81011800Y-69926200D03*
X81011800Y-68656200D03*
%TD*%
D24*
%TO.C,R4*%
X83566000Y-69382100D03*
X83566000Y-66457100D03*
%TD*%
D19*
%TO.C,C4*%
X73863200Y-69913800D03*
X73863200Y-68363800D03*
%TD*%
D15*
%TO.C,C7*%
X85699600Y-66331800D03*
X85699600Y-67881800D03*
%TD*%
D23*
%TO.C,U1*%
X103708200Y-98261400D03*
X102438200Y-98261400D03*
X101168200Y-98261400D03*
X99898200Y-98261400D03*
X99898200Y-103211400D03*
X101168200Y-103211400D03*
X102438200Y-103211400D03*
X103708200Y-103211400D03*
%TD*%
D16*
%TO.C,C10*%
X88049400Y-95250000D03*
X86499400Y-95250000D03*
%TD*%
D29*
%TO.C,U2*%
X104103400Y-87706200D03*
X104103400Y-88976200D03*
X104103400Y-90246200D03*
X104103400Y-91516200D03*
X109053400Y-91516200D03*
X109053400Y-90246200D03*
X109053400Y-88976200D03*
X109053400Y-87706200D03*
%TD*%
D17*
%TO.C,L3*%
X109473201Y-74132799D03*
X109473201Y-69632799D03*
%TD*%
D14*
%TO.C,J1*%
X102819200Y-108915200D03*
%TD*%
D26*
%TO.C,R6*%
X106590600Y-85953600D03*
X104940600Y-85953600D03*
%TD*%
D18*
%TO.C,J9*%
X91643999Y-63754000D03*
%TD*%
D31*
%TO.C,R8*%
X101854000Y-90588600D03*
X101854000Y-88938600D03*
%TD*%
D15*
%TO.C,C18*%
X105307601Y-74968599D03*
X105307601Y-76518599D03*
%TD*%
M02*
