M48
; DRILL file {KiCad (5.99.0-11336-g5116fa6d12)} date Fri Jul 16 01:18:10 2021
; FORMAT={-:-/ absolute / metric / decimal}
; #@! TF.CreationDate,2021-07-16T01:18:10+02:00
; #@! TF.GenerationSoftware,Kicad,Pcbnew,(5.99.0-11336-g5116fa6d12)
; #@! TF.FileFunction,Plated,1,2,PTH
FMAT,2
METRIC
; #@! TA.AperFunction,Plated,PTH,ViaDrill
T1C0.400
%
G90
G05
T1
X73.863Y-67.361
X74.473Y-87.63
X74.473Y-89.459
X74.662Y-80.481
X75.184Y-78.181
X76.062Y-73.573
X78.232Y-89.611
X78.232Y-90.576
X78.283Y-107.848
X78.283Y-108.864
X78.283Y-109.931
X78.892Y-103.48
X79.121Y-107.34
X79.146Y-90.068
X79.146Y-108.306
X79.172Y-110.338
X79.197Y-109.322
X79.553Y-96.368
X79.908Y-103.48
X79.908Y-104.394
X80.569Y-96.368
X80.924Y-103.48
X80.924Y-104.394
X81.585Y-96.368
X81.94Y-103.48
X81.94Y-104.394
X82.601Y-96.368
X82.956Y-103.48
X82.956Y-104.394
X83.21Y-73.762
X83.617Y-96.368
X83.972Y-103.48
X84.633Y-96.368
X85.039Y-73.762
X85.141Y-69.088
X85.496Y-77.927
X85.649Y-69.952
X86.157Y-69.088
X86.208Y-76.86
X86.309Y-106.883
X86.309Y-107.899
X86.309Y-108.915
X86.309Y-109.931
X86.309Y-110.795
X87.325Y-106.883
X87.325Y-107.899
X87.325Y-108.915
X87.325Y-109.931
X87.325Y-110.795
X88.341Y-106.883
X88.341Y-107.899
X88.341Y-108.915
X88.341Y-109.931
X88.341Y-110.795
X91.237Y-77.927
X92.177Y-104.826
X92.202Y-76.86
X97.739Y-105.867
X98.45Y-77.013
X98.603Y-71.526
X99.543Y-105.08
X101.803Y-96.52
X103.479Y-77.522
X104.089Y-92.558
X105.308Y-77.522
X105.41Y-72.796
X105.562Y-105.969
X105.867Y-73.762
X106.426Y-72.796
X111.303Y-85.001
T0
M30
