%TF.GenerationSoftware,KiCad,Pcbnew,(5.99.0-11336-g5116fa6d12)*%
%TF.CreationDate,2021-07-16T01:57:22+02:00*%
%TF.ProjectId,LED_PCB_60mm,4c45445f-5043-4425-9f36-306d6d2e6b69,rev?*%
%TF.SameCoordinates,Original*%
%TF.FileFunction,Legend,Top*%
%TF.FilePolarity,Positive*%
%FSLAX46Y46*%
G04 Gerber Fmt 4.6, Leading zero omitted, Abs format (unit mm)*
G04 Created by KiCad (PCBNEW (5.99.0-11336-g5116fa6d12)) date 2021-07-16 01:57:22*
%MOMM*%
%LPD*%
G01*
G04 APERTURE LIST*
%ADD10C,0.150000*%
%ADD11C,0.300000*%
%ADD12C,0.120000*%
G04 APERTURE END LIST*
D10*
X165890245Y-73220523D02*
X165479364Y-73028856D01*
X165504245Y-73443380D02*
X165114245Y-72767880D01*
X165371578Y-72619309D01*
X165454483Y-72614333D01*
X165505221Y-72627928D01*
X165574531Y-72673690D01*
X165630245Y-72770190D01*
X165635221Y-72853095D01*
X165621626Y-72903833D01*
X165575864Y-72973142D01*
X165318531Y-73121714D01*
X166031173Y-72796047D02*
X166545840Y-72498904D01*
X166437078Y-72904809D02*
X166139935Y-72390142D01*
X166742450Y-74770871D02*
X166659545Y-74775848D01*
X166563045Y-74831562D01*
X166485116Y-74919443D01*
X166457926Y-75020919D01*
X166462902Y-75103824D01*
X166505021Y-75251062D01*
X166560735Y-75347562D01*
X166667188Y-75457657D01*
X166736497Y-75503419D01*
X166837973Y-75530609D01*
X166953045Y-75507062D01*
X167017378Y-75469919D01*
X167095307Y-75382038D01*
X167108902Y-75331300D01*
X166978902Y-75106133D01*
X166850235Y-75180419D01*
X167286973Y-74971157D02*
X167801640Y-74674014D01*
X167692878Y-75079919D02*
X167395735Y-74565252D01*
X168036726Y-77309767D02*
X168151797Y-77286219D01*
X168202535Y-77299815D01*
X168271845Y-77345576D01*
X168327559Y-77442076D01*
X168332535Y-77524981D01*
X168318940Y-77575719D01*
X168273178Y-77645029D01*
X168015845Y-77793600D01*
X167625845Y-77118100D01*
X167851012Y-76988100D01*
X167933916Y-76983124D01*
X167984654Y-76996719D01*
X168053964Y-77042481D01*
X168091107Y-77106815D01*
X168096083Y-77189719D01*
X168082488Y-77240457D01*
X168036726Y-77309767D01*
X167811559Y-77439767D01*
X168542773Y-77146267D02*
X169057440Y-76849124D01*
X168948678Y-77255029D02*
X168651535Y-76740362D01*
X169292526Y-79484877D02*
X169407597Y-79461329D01*
X169458335Y-79474925D01*
X169527645Y-79520686D01*
X169583359Y-79617186D01*
X169588335Y-79700091D01*
X169574740Y-79750829D01*
X169528978Y-79820139D01*
X169271645Y-79968710D01*
X168881645Y-79293210D01*
X169106812Y-79163210D01*
X169189716Y-79158234D01*
X169240454Y-79171829D01*
X169309764Y-79217591D01*
X169346907Y-79281925D01*
X169351883Y-79364829D01*
X169338288Y-79415567D01*
X169292526Y-79484877D01*
X169067359Y-79614877D01*
X169798573Y-79321377D02*
X170313240Y-79024234D01*
X170509850Y-81296201D02*
X170426945Y-81301178D01*
X170330445Y-81356892D01*
X170252516Y-81444773D01*
X170225326Y-81546249D01*
X170230302Y-81629154D01*
X170272421Y-81776392D01*
X170328135Y-81872892D01*
X170434588Y-81982987D01*
X170503897Y-82028749D01*
X170605373Y-82055939D01*
X170720445Y-82032392D01*
X170784778Y-81995249D01*
X170862707Y-81907368D01*
X170876302Y-81856630D01*
X170746302Y-81631463D01*
X170617635Y-81705749D01*
X171054373Y-81496487D02*
X171569040Y-81199344D01*
X172169245Y-84096073D02*
X171758364Y-83904406D01*
X171783245Y-84318930D02*
X171393245Y-83643430D01*
X171650578Y-83494859D01*
X171733483Y-83489883D01*
X171784221Y-83503478D01*
X171853531Y-83549240D01*
X171909245Y-83645740D01*
X171914221Y-83728645D01*
X171900626Y-83779383D01*
X171854864Y-83848692D01*
X171597531Y-83997264D01*
X172310173Y-83671597D02*
X172824840Y-83374454D01*
D11*
%TO.C,G\u002A\u002A\u002A*%
X150226974Y-91815300D02*
X150236697Y-91977284D01*
X150345554Y-92165830D01*
X150517260Y-92318090D01*
X150715528Y-92371216D01*
X150877512Y-92361493D01*
X151165192Y-92279199D01*
X151353738Y-92170342D01*
X151568847Y-91962350D01*
X151658259Y-91826930D01*
X151711385Y-91628661D01*
X151665376Y-91403830D01*
X151592805Y-91278132D01*
X151421099Y-91125872D01*
X151321965Y-91099309D01*
X150882024Y-91353309D01*
X151027167Y-91604704D01*
X149692411Y-91034553D02*
X150006654Y-90853124D01*
X150062386Y-91239939D02*
X150006654Y-90853124D01*
X149699528Y-90611452D01*
X150366906Y-90896528D02*
X150006654Y-90853124D01*
X150149192Y-90519436D01*
X149111839Y-90028974D02*
X149426083Y-89847545D01*
X149481814Y-90234360D02*
X149426083Y-89847545D01*
X149118957Y-89605873D01*
X149786335Y-89890949D02*
X149426083Y-89847545D01*
X149568621Y-89513856D01*
X148531268Y-89023395D02*
X148845512Y-88841966D01*
X148901243Y-89228781D02*
X148845512Y-88841966D01*
X148538386Y-88600294D01*
X149205763Y-88885369D02*
X148845512Y-88841966D01*
X148988049Y-88508277D01*
D10*
%TO.C,D1*%
X149503904Y-69928380D02*
X149503904Y-68928380D01*
X149742000Y-68928380D01*
X149884857Y-68976000D01*
X149980095Y-69071238D01*
X150027714Y-69166476D01*
X150075333Y-69356952D01*
X150075333Y-69499809D01*
X150027714Y-69690285D01*
X149980095Y-69785523D01*
X149884857Y-69880761D01*
X149742000Y-69928380D01*
X149503904Y-69928380D01*
X151027714Y-69928380D02*
X150456285Y-69928380D01*
X150742000Y-69928380D02*
X150742000Y-68928380D01*
X150646761Y-69071238D01*
X150551523Y-69166476D01*
X150456285Y-69214095D01*
%TO.C,D3*%
X168186255Y-101382399D02*
X167320230Y-100882399D01*
X167439277Y-100676203D01*
X167551945Y-100576294D01*
X167682043Y-100541435D01*
X167788331Y-100547814D01*
X167977098Y-100601813D01*
X168100816Y-100673242D01*
X168241964Y-100809719D01*
X168300633Y-100898578D01*
X168335492Y-101028675D01*
X168305303Y-101176203D01*
X168186255Y-101382399D01*
X167772611Y-100098852D02*
X168082135Y-99562741D01*
X168245382Y-100041893D01*
X168316811Y-99918175D01*
X168405669Y-99859506D01*
X168470718Y-99842076D01*
X168577006Y-99848456D01*
X168783203Y-99967503D01*
X168841872Y-100056362D01*
X168859302Y-100121411D01*
X168852922Y-100227699D01*
X168710065Y-100475134D01*
X168621206Y-100533804D01*
X168556158Y-100551233D01*
%TO.C,D2*%
X133081291Y-100930018D02*
X132215265Y-101430018D01*
X132096217Y-101223822D01*
X132066028Y-101076294D01*
X132100888Y-100946197D01*
X132159557Y-100857338D01*
X132300705Y-100720861D01*
X132424422Y-100649432D01*
X132613189Y-100595434D01*
X132719477Y-100589054D01*
X132849575Y-100623913D01*
X132962243Y-100723822D01*
X133081291Y-100930018D01*
X131821553Y-100557613D02*
X131756504Y-100540183D01*
X131667646Y-100481514D01*
X131548598Y-100275318D01*
X131542219Y-100169030D01*
X131559648Y-100103981D01*
X131618318Y-100015122D01*
X131700796Y-99967503D01*
X131848324Y-99937314D01*
X132628910Y-100146471D01*
X132319386Y-99610360D01*
%TO.C,G\u002A\u002A\u002A*%
G36*
X156391299Y-87151206D02*
G01*
X155770052Y-86973646D01*
X155466496Y-86447873D01*
X155339708Y-86229658D01*
X155248565Y-86080712D01*
X155180316Y-85986082D01*
X155122214Y-85930820D01*
X155061509Y-85899974D01*
X154985451Y-85878593D01*
X154979883Y-85877226D01*
X154913073Y-85866796D01*
X154851242Y-85857143D01*
X154788723Y-85881943D01*
X154776377Y-85908666D01*
X154786630Y-85975209D01*
X154871584Y-86030755D01*
X154898331Y-86041966D01*
X154964296Y-86075889D01*
X155027245Y-86130731D01*
X155098848Y-86221775D01*
X155190775Y-86364308D01*
X155314695Y-86573611D01*
X155347444Y-86630197D01*
X155654157Y-87161440D01*
X156452196Y-87372766D01*
X157250234Y-87584091D01*
X157452391Y-88000128D01*
X157654549Y-88416163D01*
X157769687Y-90464243D01*
X157816386Y-91294921D01*
X156453884Y-94520218D01*
X155978653Y-94794806D01*
X155907218Y-94836082D01*
X155713681Y-94946519D01*
X155464872Y-95086330D01*
X155235825Y-95213860D01*
X155170452Y-95250259D01*
X154840078Y-95433050D01*
X154483407Y-95629448D01*
X154110099Y-95834195D01*
X153729813Y-96042035D01*
X153352206Y-96247715D01*
X152986936Y-96445975D01*
X152643663Y-96631561D01*
X152332044Y-96799216D01*
X152061738Y-96943685D01*
X151842404Y-97059711D01*
X151683699Y-97142038D01*
X151595281Y-97185410D01*
X151580252Y-97190815D01*
X151564166Y-97176274D01*
X151568107Y-97141012D01*
X151596793Y-97077854D01*
X151654938Y-96979619D01*
X151747260Y-96839133D01*
X151878473Y-96649216D01*
X152053293Y-96402694D01*
X152276437Y-96092389D01*
X152551440Y-95712748D01*
X153515571Y-94384641D01*
X153232393Y-93740101D01*
X153117330Y-93481805D01*
X153058935Y-93357802D01*
X153869037Y-93357802D01*
X153872730Y-93392375D01*
X153933783Y-93535906D01*
X154039736Y-93614866D01*
X154164070Y-93624182D01*
X154280266Y-93558782D01*
X154335402Y-93480860D01*
X154337557Y-93477960D01*
X154873662Y-93477960D01*
X154938247Y-93582641D01*
X155043749Y-93639445D01*
X155164752Y-93640395D01*
X155275847Y-93577511D01*
X155339278Y-93479015D01*
X155382026Y-93400415D01*
X155454092Y-93325690D01*
X155574003Y-93239616D01*
X155760284Y-93126962D01*
X155784916Y-93112701D01*
X156173812Y-92888172D01*
X156220685Y-92636794D01*
X156270625Y-92461023D01*
X156338360Y-92349128D01*
X156361017Y-92331456D01*
X156460861Y-92229310D01*
X156470430Y-92096056D01*
X156434004Y-92008922D01*
X156356425Y-91916954D01*
X156291258Y-91878236D01*
X156156083Y-91883212D01*
X156051719Y-91958861D01*
X155995000Y-92079737D01*
X156002763Y-92220393D01*
X156027734Y-92276561D01*
X156048256Y-92368339D01*
X156047959Y-92507908D01*
X156043457Y-92551566D01*
X156017379Y-92754172D01*
X155646136Y-92968510D01*
X155445702Y-93078669D01*
X155308707Y-93139134D01*
X155219209Y-93156197D01*
X155186108Y-93149988D01*
X155061219Y-93149406D01*
X154944745Y-93218840D01*
X154875401Y-93333380D01*
X154873662Y-93477960D01*
X154337557Y-93477960D01*
X154401335Y-93392121D01*
X154520868Y-93293688D01*
X154709856Y-93173067D01*
X154772182Y-93136612D01*
X155143439Y-92922267D01*
X155219918Y-92625756D01*
X155284444Y-92432108D01*
X155357789Y-92304870D01*
X155394142Y-92272812D01*
X155470199Y-92178991D01*
X155475290Y-92099782D01*
X155455993Y-91990405D01*
X155420691Y-91934494D01*
X155339072Y-91889446D01*
X155318961Y-91880061D01*
X155176230Y-91857438D01*
X155059248Y-91916182D01*
X154993567Y-92040532D01*
X154987887Y-92084303D01*
X154998157Y-92195250D01*
X155032242Y-92254873D01*
X155054405Y-92314649D01*
X155054205Y-92437104D01*
X155042250Y-92530946D01*
X154999857Y-92778826D01*
X154821212Y-92882519D01*
X154672631Y-92968760D01*
X154487970Y-93069978D01*
X154355009Y-93124843D01*
X154245992Y-93142867D01*
X154174652Y-93139311D01*
X154011497Y-93153954D01*
X153904337Y-93231217D01*
X153869037Y-93357802D01*
X153058935Y-93357802D01*
X153032100Y-93300816D01*
X152969710Y-93184557D01*
X152923176Y-93120453D01*
X152885507Y-93095927D01*
X152873600Y-93094369D01*
X152797952Y-93053731D01*
X152718735Y-92956293D01*
X152654584Y-92835586D01*
X152624136Y-92725138D01*
X152636159Y-92667192D01*
X152648695Y-92578684D01*
X152606460Y-92475380D01*
X154314793Y-92475380D01*
X154317818Y-92583391D01*
X154362385Y-92643962D01*
X154436208Y-92685677D01*
X154578910Y-92717343D01*
X154703448Y-92678545D01*
X154783554Y-92585016D01*
X154796430Y-92469925D01*
X154768981Y-92368567D01*
X154737730Y-92324717D01*
X154732149Y-92276873D01*
X154749556Y-92158192D01*
X154786288Y-91991239D01*
X154801576Y-91931117D01*
X154902243Y-91547384D01*
X155371578Y-91276414D01*
X155590464Y-91153284D01*
X155743436Y-91076312D01*
X155846131Y-91038894D01*
X155914189Y-91034425D01*
X155932688Y-91039411D01*
X156051392Y-91038803D01*
X156154258Y-90967113D01*
X156212686Y-90849552D01*
X156216894Y-90788896D01*
X156170220Y-90654016D01*
X156063508Y-90585246D01*
X155915446Y-90591802D01*
X155859441Y-90612630D01*
X155751739Y-90686192D01*
X155732346Y-90756108D01*
X155724831Y-90798255D01*
X155680859Y-90849093D01*
X155587776Y-90918147D01*
X155489262Y-90979731D01*
X155432923Y-91014949D01*
X155251853Y-91121057D01*
X155233036Y-91132084D01*
X154922730Y-91311240D01*
X154720992Y-91427713D01*
X154643248Y-91724068D01*
X154616968Y-91824246D01*
X154545572Y-92055956D01*
X154474225Y-92211717D01*
X154417962Y-92275618D01*
X154342410Y-92366479D01*
X154314793Y-92475380D01*
X152606460Y-92475380D01*
X152598998Y-92457128D01*
X152519151Y-92351973D01*
X152427535Y-92318707D01*
X152382092Y-92320287D01*
X152257824Y-92369163D01*
X152180809Y-92468752D01*
X152154252Y-92590946D01*
X152181355Y-92707640D01*
X152265322Y-92790723D01*
X152326242Y-92810322D01*
X152394567Y-92847584D01*
X152466769Y-92920505D01*
X152522458Y-93001324D01*
X152541244Y-93062269D01*
X152522942Y-93078167D01*
X152346503Y-93089168D01*
X152237745Y-93082330D01*
X152167321Y-93044322D01*
X152105885Y-92961813D01*
X152047849Y-92862356D01*
X151967052Y-92704421D01*
X151939608Y-92592091D01*
X151953981Y-92505508D01*
X151974951Y-92376334D01*
X151920190Y-92284074D01*
X151814555Y-92220957D01*
X151671688Y-92197908D01*
X151555384Y-92256846D01*
X151489505Y-92382660D01*
X151483164Y-92430785D01*
X151484644Y-92532512D01*
X151521858Y-92590590D01*
X151620919Y-92642321D01*
X151635797Y-92648827D01*
X151789408Y-92753595D01*
X151911789Y-92921159D01*
X152026786Y-93123411D01*
X151854835Y-93065343D01*
X151763198Y-93027108D01*
X151689121Y-92970770D01*
X151613738Y-92875766D01*
X151518181Y-92721539D01*
X151481596Y-92658634D01*
X151380779Y-92477007D01*
X151325319Y-92353634D01*
X151307381Y-92265494D01*
X151319128Y-92189567D01*
X151320475Y-92185301D01*
X151332885Y-92035610D01*
X151261760Y-91933618D01*
X151161461Y-91893246D01*
X151005591Y-91899018D01*
X150897646Y-91982766D01*
X150855293Y-92120336D01*
X150856681Y-92221163D01*
X150893223Y-92279258D01*
X150990721Y-92330828D01*
X151011933Y-92340122D01*
X151145487Y-92422897D01*
X151245088Y-92554178D01*
X151275097Y-92611450D01*
X151373261Y-92810954D01*
X150846567Y-92502597D01*
X150597488Y-92351159D01*
X150394135Y-92211258D01*
X150207039Y-92059626D01*
X150006729Y-91872993D01*
X149847564Y-91713844D01*
X149375254Y-91233447D01*
X149377742Y-90783377D01*
X149166198Y-90645706D01*
X148954654Y-90508034D01*
X148799633Y-89847918D01*
X148740484Y-89574404D01*
X148690629Y-89302989D01*
X148654944Y-89063179D01*
X148638307Y-88884481D01*
X148637837Y-88869257D01*
X148631063Y-88550712D01*
X149287434Y-88171757D01*
X149289298Y-87974404D01*
X149316011Y-87807584D01*
X149387006Y-87721715D01*
X149476365Y-87630484D01*
X149495839Y-87489987D01*
X149486794Y-87422651D01*
X149432514Y-87352377D01*
X149322843Y-87292263D01*
X149199311Y-87258828D01*
X149103451Y-87268586D01*
X149101771Y-87269525D01*
X149043813Y-87350593D01*
X149017940Y-87481115D01*
X149029468Y-87617177D01*
X149052537Y-87676484D01*
X149095922Y-87813571D01*
X149099727Y-87932957D01*
X149075580Y-88024107D01*
X149016250Y-88093023D01*
X148897238Y-88164985D01*
X148853002Y-88187562D01*
X148624931Y-88301897D01*
X148653289Y-87836892D01*
X148668776Y-87624260D01*
X148691746Y-87466324D01*
X148732775Y-87331821D01*
X148802442Y-87189488D01*
X148911321Y-87008066D01*
X148959796Y-86930900D01*
X149237945Y-86489915D01*
X148920312Y-86056431D01*
X148742874Y-85812163D01*
X148609350Y-85633624D01*
X148501935Y-85511541D01*
X148402819Y-85436643D01*
X148294197Y-85399656D01*
X148158260Y-85391308D01*
X147977202Y-85402329D01*
X147733215Y-85423446D01*
X147708504Y-85425449D01*
X147090745Y-85474317D01*
X146564783Y-85514513D01*
X146125689Y-85546321D01*
X145768544Y-85570030D01*
X145488423Y-85585926D01*
X145280402Y-85594297D01*
X145139559Y-85595429D01*
X145060970Y-85589610D01*
X145040009Y-85581019D01*
X145067267Y-85543052D01*
X145172044Y-85465567D01*
X145356503Y-85347170D01*
X145622805Y-85186473D01*
X145954797Y-84992654D01*
X146895656Y-84449449D01*
X147844758Y-84720848D01*
X148793860Y-84992249D01*
X149530163Y-86267562D01*
X149738453Y-86628827D01*
X149902562Y-86915419D01*
X150027117Y-87136645D01*
X150116743Y-87301811D01*
X150176068Y-87420225D01*
X150209718Y-87501190D01*
X150222320Y-87554016D01*
X150218501Y-87588006D01*
X150202886Y-87612468D01*
X150200247Y-87615416D01*
X150168549Y-87683196D01*
X150118810Y-87829869D01*
X150055674Y-88039879D01*
X149983781Y-88297674D01*
X149907773Y-88587696D01*
X149894743Y-88639219D01*
X149655457Y-89590481D01*
X150464825Y-90122800D01*
X150500024Y-90620258D01*
X150535222Y-91117718D01*
X150694376Y-91169434D01*
X151155689Y-91317765D01*
X151534333Y-91435754D01*
X151839101Y-91525753D01*
X152078784Y-91590119D01*
X152262178Y-91631205D01*
X152398077Y-91651366D01*
X152495272Y-91652956D01*
X152499026Y-91652614D01*
X152607307Y-91634153D01*
X152728389Y-91594191D01*
X152880613Y-91524562D01*
X153082314Y-91417099D01*
X153281930Y-91303978D01*
X153554100Y-91142653D01*
X153741392Y-91020359D01*
X153846906Y-90934961D01*
X153873700Y-90896257D01*
X153859861Y-90816235D01*
X153793538Y-90663781D01*
X153673459Y-90436203D01*
X153571306Y-90255937D01*
X153437896Y-90027400D01*
X153341882Y-89871336D01*
X153273728Y-89775175D01*
X153255239Y-89757059D01*
X153223897Y-89726350D01*
X153182854Y-89712290D01*
X153160733Y-89714786D01*
X153080871Y-89725282D01*
X152925716Y-89739781D01*
X152716928Y-89756441D01*
X152694984Y-89757988D01*
X152476170Y-89773422D01*
X152452440Y-89774984D01*
X151830994Y-89815625D01*
X151637661Y-89480762D01*
X151542307Y-89311495D01*
X151539157Y-89304763D01*
X152302839Y-89304763D01*
X152353950Y-89410042D01*
X152362371Y-89424716D01*
X152430690Y-89529794D01*
X152485576Y-89562341D01*
X152555460Y-89537472D01*
X152564651Y-89532245D01*
X152627095Y-89483949D01*
X152632198Y-89423253D01*
X152581089Y-89317973D01*
X152572668Y-89303301D01*
X152504348Y-89198222D01*
X152449463Y-89165674D01*
X152379579Y-89190543D01*
X152370387Y-89195771D01*
X152307944Y-89244066D01*
X152302839Y-89304763D01*
X151539157Y-89304763D01*
X151491150Y-89202162D01*
X151478087Y-89129606D01*
X151497015Y-89070667D01*
X151519945Y-89034042D01*
X151681776Y-88797359D01*
X151742979Y-88709706D01*
X151949560Y-88709706D01*
X152216673Y-89172359D01*
X152407936Y-89061933D01*
X152723433Y-89061933D01*
X152774543Y-89167213D01*
X152782964Y-89181886D01*
X152851284Y-89286964D01*
X152906169Y-89319512D01*
X152976053Y-89294642D01*
X152985244Y-89289415D01*
X153047688Y-89241120D01*
X153052792Y-89180423D01*
X153001682Y-89075143D01*
X152993261Y-89060471D01*
X152924942Y-88955392D01*
X152870056Y-88922844D01*
X152800172Y-88947714D01*
X152790981Y-88952941D01*
X152728537Y-89001236D01*
X152723433Y-89061933D01*
X152407936Y-89061933D01*
X152690163Y-88898989D01*
X152974029Y-88898989D01*
X153010370Y-88992255D01*
X153021746Y-89012675D01*
X153088890Y-89104952D01*
X153143307Y-89140019D01*
X153150229Y-89138082D01*
X153158918Y-89084412D01*
X153120873Y-88990104D01*
X153054678Y-88904159D01*
X153143951Y-88904159D01*
X153161499Y-88963339D01*
X153232567Y-89016762D01*
X153289033Y-89001864D01*
X153399599Y-88978760D01*
X153456785Y-88989131D01*
X153583147Y-88991015D01*
X153583608Y-88990709D01*
X154590496Y-88990709D01*
X154600903Y-89106158D01*
X154666123Y-89226547D01*
X154758957Y-89304772D01*
X154775047Y-89310361D01*
X154880110Y-89303765D01*
X154989303Y-89250720D01*
X155066067Y-89174347D01*
X155080615Y-89117117D01*
X155093116Y-89067501D01*
X155154599Y-89005976D01*
X155278539Y-88921601D01*
X155439075Y-88826042D01*
X155809749Y-88612033D01*
X156196015Y-88739516D01*
X156421585Y-88824949D01*
X156576214Y-88907271D01*
X156641265Y-88968728D01*
X156733802Y-89063183D01*
X156857781Y-89118370D01*
X156971333Y-89117253D01*
X156987615Y-89109653D01*
X157087955Y-89005478D01*
X157115873Y-88872922D01*
X157075989Y-88742763D01*
X156972916Y-88645779D01*
X156914610Y-88623056D01*
X156872529Y-88621797D01*
X156795525Y-88619493D01*
X156732425Y-88640116D01*
X156653252Y-88645502D01*
X156507133Y-88621175D01*
X156317985Y-88571746D01*
X156222850Y-88541766D01*
X155791208Y-88398420D01*
X155704457Y-88448506D01*
X155381238Y-88635117D01*
X155181536Y-88746875D01*
X155083102Y-88794536D01*
X155047577Y-88811737D01*
X154963777Y-88835918D01*
X154914551Y-88825627D01*
X154910634Y-88822701D01*
X154827403Y-88809258D01*
X154720185Y-88850245D01*
X154627281Y-88925562D01*
X154590496Y-88990709D01*
X153583608Y-88990709D01*
X153691391Y-88919211D01*
X153750001Y-88796238D01*
X153752301Y-88777998D01*
X153752993Y-88653090D01*
X153711997Y-88577276D01*
X153632345Y-88519571D01*
X153521704Y-88500616D01*
X153401195Y-88545515D01*
X153310117Y-88634350D01*
X153286805Y-88694716D01*
X153234932Y-88796649D01*
X153191902Y-88833627D01*
X153143951Y-88904159D01*
X153054678Y-88904159D01*
X153051828Y-88900458D01*
X152992390Y-88864697D01*
X152984167Y-88880053D01*
X152974029Y-88898989D01*
X152690163Y-88898989D01*
X152805504Y-88832397D01*
X152538391Y-88369744D01*
X151949560Y-88709706D01*
X151742979Y-88709706D01*
X151840375Y-88570220D01*
X151984017Y-88368980D01*
X152100972Y-88210001D01*
X152179512Y-88109644D01*
X152195551Y-88091607D01*
X152234772Y-88036366D01*
X152235089Y-87971068D01*
X152191330Y-87869389D01*
X152130451Y-87760303D01*
X152080414Y-87673636D01*
X152514796Y-87673636D01*
X152540529Y-87775434D01*
X152607828Y-87906745D01*
X152648343Y-87977394D01*
X152735138Y-88135850D01*
X152776060Y-88242184D01*
X152778357Y-88325598D01*
X152754109Y-88403417D01*
X152725177Y-88531720D01*
X152744005Y-88623266D01*
X152801906Y-88655614D01*
X152846017Y-88640770D01*
X152905389Y-88569760D01*
X152961032Y-88446958D01*
X152970034Y-88418479D01*
X152993722Y-88310671D01*
X152986647Y-88216267D01*
X152941084Y-88102598D01*
X152860913Y-87957051D01*
X152775264Y-87802120D01*
X152733788Y-87692842D01*
X152730236Y-87591849D01*
X152758357Y-87461776D01*
X152770558Y-87416858D01*
X152813830Y-87243109D01*
X152822845Y-87144012D01*
X152795263Y-87102481D01*
X152728745Y-87101431D01*
X152727400Y-87101642D01*
X152661727Y-87159378D01*
X152660334Y-87162505D01*
X152595403Y-87308267D01*
X152565853Y-87404625D01*
X152525084Y-87562864D01*
X152514796Y-87673636D01*
X152080414Y-87673636D01*
X151986389Y-87510781D01*
X152168325Y-87405740D01*
X152305491Y-87304634D01*
X152375102Y-87187382D01*
X152386049Y-87148256D01*
X152404366Y-87042036D01*
X152381535Y-86995626D01*
X152319316Y-86978306D01*
X152242969Y-86979554D01*
X152219464Y-87017294D01*
X152206991Y-87037322D01*
X152195118Y-87097674D01*
X152125642Y-87243281D01*
X152045412Y-87308466D01*
X151917384Y-87382384D01*
X151741037Y-87105664D01*
X151564690Y-86828942D01*
X150772628Y-87253991D01*
X150396315Y-86602944D01*
X151808509Y-86602944D01*
X151819304Y-86717246D01*
X151878653Y-86782162D01*
X151979074Y-86815446D01*
X152051101Y-86826131D01*
X152097743Y-86806467D01*
X152134563Y-86736926D01*
X152138059Y-86725515D01*
X152227102Y-86725515D01*
X152238114Y-86843457D01*
X152306910Y-86905470D01*
X152441061Y-86927224D01*
X152455572Y-86927715D01*
X152516187Y-86912836D01*
X152560281Y-86850377D01*
X152563387Y-86840114D01*
X152623426Y-86840114D01*
X152633395Y-86946235D01*
X152667994Y-86996353D01*
X152782782Y-87057000D01*
X152886216Y-87023653D01*
X152926765Y-86966058D01*
X153035663Y-86966058D01*
X153081066Y-87058172D01*
X153086058Y-87065251D01*
X153184949Y-87155335D01*
X153279642Y-87152557D01*
X153362945Y-87061141D01*
X153427657Y-86885307D01*
X153433212Y-86861531D01*
X153464458Y-86685055D01*
X153456571Y-86577718D01*
X153403196Y-86517228D01*
X153326894Y-86488489D01*
X153249582Y-86471381D01*
X153199522Y-86484746D01*
X153156927Y-86547214D01*
X153102015Y-86677421D01*
X153087549Y-86713894D01*
X153037772Y-86863678D01*
X153035663Y-86966058D01*
X152926765Y-86966058D01*
X152973832Y-86899205D01*
X153021147Y-86767428D01*
X153061043Y-86570268D01*
X153046385Y-86442432D01*
X152974504Y-86371128D01*
X152935442Y-86357189D01*
X152828055Y-86358214D01*
X152745001Y-86433409D01*
X152677569Y-86592515D01*
X152656101Y-86669614D01*
X152623426Y-86840114D01*
X152563387Y-86840114D01*
X152599855Y-86719631D01*
X152615225Y-86652226D01*
X152648833Y-86459148D01*
X152642729Y-86339428D01*
X152590897Y-86275330D01*
X152487323Y-86249111D01*
X152478263Y-86248261D01*
X152405226Y-86247859D01*
X152357203Y-86276305D01*
X152318982Y-86354253D01*
X152275345Y-86502355D01*
X152266300Y-86535971D01*
X152227102Y-86725515D01*
X152138059Y-86725515D01*
X152177129Y-86597978D01*
X152190460Y-86550220D01*
X152236729Y-86368860D01*
X152248234Y-86257172D01*
X152220618Y-86192575D01*
X152149526Y-86152492D01*
X152111182Y-86139307D01*
X152004112Y-86120340D01*
X151962421Y-86141002D01*
X151931417Y-86156368D01*
X151878767Y-86262082D01*
X151838915Y-86418424D01*
X151808509Y-86602944D01*
X150396315Y-86602944D01*
X149989742Y-85899544D01*
X149901347Y-85746614D01*
X151810795Y-85746614D01*
X151812866Y-85796786D01*
X151849035Y-85875662D01*
X151916888Y-85945231D01*
X152028425Y-86010917D01*
X152195648Y-86078149D01*
X152430556Y-86152350D01*
X152745149Y-86238949D01*
X152853285Y-86267230D01*
X153187618Y-86349462D01*
X153436030Y-86400078D01*
X153604120Y-86419996D01*
X153697490Y-86410132D01*
X153704475Y-86406685D01*
X153757066Y-86342359D01*
X153818013Y-86207421D01*
X153936220Y-86207421D01*
X153954434Y-86257203D01*
X154021674Y-86306890D01*
X154148293Y-86359789D01*
X154298877Y-86405452D01*
X154438021Y-86433430D01*
X154530315Y-86433276D01*
X154538874Y-86429657D01*
X154574430Y-86369464D01*
X154581398Y-86343973D01*
X154666848Y-86343973D01*
X154675336Y-86412425D01*
X154761049Y-86458142D01*
X154761660Y-86458340D01*
X154818957Y-86488111D01*
X154881591Y-86549257D01*
X154959838Y-86655630D01*
X155063980Y-86821083D01*
X155192053Y-87038345D01*
X155506958Y-87581148D01*
X155808500Y-87681111D01*
X156007293Y-87762113D01*
X156138273Y-87847783D01*
X156171600Y-87887695D01*
X156270598Y-87978061D01*
X156404041Y-88011114D01*
X156505474Y-87986039D01*
X156564124Y-87908800D01*
X156602541Y-87785429D01*
X156608097Y-87666624D01*
X156595205Y-87625797D01*
X156524273Y-87567240D01*
X156426095Y-87527155D01*
X156303253Y-87514548D01*
X156221580Y-87533074D01*
X156136107Y-87545285D01*
X155995975Y-87531181D01*
X155900336Y-87510887D01*
X155650921Y-87447228D01*
X155332262Y-86895294D01*
X155201435Y-86670299D01*
X155106863Y-86515284D01*
X155036761Y-86415810D01*
X154979341Y-86357436D01*
X154922821Y-86325722D01*
X154855415Y-86306229D01*
X154850562Y-86305084D01*
X154785292Y-86296649D01*
X154731408Y-86289685D01*
X154675650Y-86321499D01*
X154666848Y-86343973D01*
X154581398Y-86343973D01*
X154603433Y-86263357D01*
X154614376Y-86162429D01*
X154607384Y-86125429D01*
X154561579Y-86105423D01*
X154450819Y-86066228D01*
X154351412Y-86033337D01*
X154198542Y-85995110D01*
X154076346Y-85984248D01*
X154031295Y-85993678D01*
X153951185Y-86086589D01*
X153936220Y-86207421D01*
X153818013Y-86207421D01*
X153821082Y-86200627D01*
X153898589Y-85975961D01*
X153975479Y-85717250D01*
X154030284Y-85717250D01*
X154042827Y-85811518D01*
X154114792Y-85896978D01*
X154263190Y-85966945D01*
X154339825Y-85990541D01*
X154520605Y-86032199D01*
X154630575Y-86028671D01*
X154687646Y-85974310D01*
X154708854Y-85874215D01*
X154699896Y-85773546D01*
X154640562Y-85701919D01*
X154513654Y-85645594D01*
X154375578Y-85607956D01*
X154207132Y-85593286D01*
X154086644Y-85633014D01*
X154030284Y-85717250D01*
X153975479Y-85717250D01*
X153991651Y-85662836D01*
X154018613Y-85566388D01*
X154062588Y-85403435D01*
X154151657Y-85403435D01*
X154208649Y-85495098D01*
X154348375Y-85561202D01*
X154429646Y-85583113D01*
X154622463Y-85608911D01*
X154744595Y-85574984D01*
X154777172Y-85522154D01*
X154882630Y-85522154D01*
X154890338Y-85571548D01*
X154942636Y-85616550D01*
X155055378Y-85665819D01*
X155244418Y-85728018D01*
X155278484Y-85738436D01*
X155485221Y-85805346D01*
X155620478Y-85862653D01*
X155707235Y-85923368D01*
X155768476Y-86000501D01*
X155782382Y-86023684D01*
X155847514Y-86215570D01*
X155838786Y-86337490D01*
X155821392Y-86448490D01*
X155851902Y-86513281D01*
X155931548Y-86567944D01*
X156077860Y-86613099D01*
X156205979Y-86580852D01*
X156289999Y-86482178D01*
X156307634Y-86408612D01*
X156303848Y-86268078D01*
X156248264Y-86190851D01*
X156136848Y-86151976D01*
X156043429Y-86111754D01*
X155956992Y-86021285D01*
X155872213Y-85887878D01*
X155803803Y-85774421D01*
X155741160Y-85698897D01*
X155660069Y-85646185D01*
X155536316Y-85601166D01*
X155345683Y-85548719D01*
X155316926Y-85541145D01*
X155113998Y-85490739D01*
X154986263Y-85468673D01*
X154981805Y-85469024D01*
X154916247Y-85474185D01*
X154886473Y-85506508D01*
X154882630Y-85522154D01*
X154777172Y-85522154D01*
X154804148Y-85478408D01*
X154809980Y-85445966D01*
X154818750Y-85365063D01*
X154802472Y-85319982D01*
X154738338Y-85282204D01*
X154647149Y-85242397D01*
X154494213Y-85190514D01*
X154349833Y-85163232D01*
X154344131Y-85162860D01*
X154241182Y-85166423D01*
X154191304Y-85211467D01*
X154167419Y-85274469D01*
X154151657Y-85403435D01*
X154062588Y-85403435D01*
X154110648Y-85225344D01*
X154169253Y-84981676D01*
X154234509Y-84981676D01*
X154304640Y-85062328D01*
X154456508Y-85130282D01*
X154534570Y-85153977D01*
X154711734Y-85194663D01*
X154821166Y-85190788D01*
X154883945Y-85137109D01*
X154913430Y-85059778D01*
X154926034Y-84960827D01*
X154889020Y-84891880D01*
X154786039Y-84836926D01*
X154638345Y-84790356D01*
X154442879Y-84751603D01*
X154316396Y-84768579D01*
X154246509Y-84843972D01*
X154234843Y-84877951D01*
X154234509Y-84981676D01*
X154169253Y-84981676D01*
X154173504Y-84964001D01*
X154207025Y-84769368D01*
X154211053Y-84628452D01*
X154185434Y-84528259D01*
X154130010Y-84455797D01*
X154044626Y-84398074D01*
X154004311Y-84377310D01*
X153909575Y-84340906D01*
X153741617Y-84286266D01*
X153521175Y-84219766D01*
X153346435Y-84169891D01*
X153268991Y-84147786D01*
X153164580Y-84119081D01*
X152858029Y-84036693D01*
X152624583Y-83984382D01*
X152450688Y-83970930D01*
X152322791Y-84005116D01*
X152227338Y-84095719D01*
X152150775Y-84251518D01*
X152079551Y-84481295D01*
X152065516Y-84536507D01*
X152000108Y-84793829D01*
X151976727Y-84888549D01*
X151966371Y-84932736D01*
X151913022Y-85160377D01*
X151872977Y-85353057D01*
X151861926Y-85406228D01*
X151826747Y-85607756D01*
X151810795Y-85746614D01*
X149901347Y-85746614D01*
X149206855Y-84545096D01*
X148993219Y-84472161D01*
X148859688Y-84429543D01*
X148660935Y-84369740D01*
X148425427Y-84301187D01*
X148216304Y-84241972D01*
X147997105Y-84178988D01*
X147815034Y-84123288D01*
X147688877Y-84080858D01*
X147637427Y-84057683D01*
X147637321Y-84057515D01*
X147671613Y-84025287D01*
X147776513Y-83954130D01*
X147938064Y-83852896D01*
X148142310Y-83730440D01*
X148273537Y-83653929D01*
X148925457Y-83277543D01*
X149975202Y-85095754D01*
X150489416Y-85241066D01*
X150699589Y-85298230D01*
X150874057Y-85341496D01*
X150992541Y-85366099D01*
X151033897Y-85368904D01*
X151066335Y-85316070D01*
X151064176Y-85313759D01*
X151115481Y-85313759D01*
X151130570Y-85425542D01*
X151197093Y-85507716D01*
X151328201Y-85571689D01*
X151443313Y-85605459D01*
X151594032Y-85641422D01*
X151677361Y-85647264D01*
X151719768Y-85617877D01*
X151747719Y-85548155D01*
X151748215Y-85546617D01*
X151765878Y-85414384D01*
X151711836Y-85320205D01*
X151575786Y-85251437D01*
X151486781Y-85225843D01*
X151305107Y-85203797D01*
X151274744Y-85211314D01*
X151177067Y-85235498D01*
X151115481Y-85313759D01*
X151064176Y-85313759D01*
X151005776Y-85251236D01*
X150855347Y-85176368D01*
X150618171Y-85093437D01*
X150576907Y-85080902D01*
X150202126Y-84968856D01*
X151212448Y-84968856D01*
X151276139Y-85081145D01*
X151425801Y-85167416D01*
X151554469Y-85204169D01*
X151819852Y-85261042D01*
X151865377Y-85110144D01*
X151884005Y-85008804D01*
X151857202Y-84937060D01*
X151770026Y-84881747D01*
X151607533Y-84829699D01*
X151522311Y-84807886D01*
X151373082Y-84778625D01*
X151288045Y-84786714D01*
X151240656Y-84834839D01*
X151239788Y-84836458D01*
X151212448Y-84968856D01*
X150202126Y-84968856D01*
X150110426Y-84941441D01*
X149965373Y-84690202D01*
X150253677Y-84690202D01*
X150261413Y-84797952D01*
X150348674Y-84901238D01*
X150481747Y-84952190D01*
X150616991Y-84935627D01*
X150633208Y-84927291D01*
X150735928Y-84906825D01*
X150878123Y-84921203D01*
X150916524Y-84930931D01*
X151049122Y-84958711D01*
X151118277Y-84940304D01*
X151138222Y-84908225D01*
X151155188Y-84832948D01*
X151123731Y-84784630D01*
X151025232Y-84746091D01*
X150937863Y-84723359D01*
X150800879Y-84671796D01*
X150703501Y-84603213D01*
X150689490Y-84584561D01*
X150686890Y-84582172D01*
X151316160Y-84582172D01*
X151334968Y-84631485D01*
X151402689Y-84682919D01*
X151527636Y-84738534D01*
X151674563Y-84786898D01*
X151808224Y-84816580D01*
X151893376Y-84816151D01*
X151897836Y-84814029D01*
X151947509Y-84750730D01*
X151990563Y-84647925D01*
X152008636Y-84555079D01*
X152003508Y-84529341D01*
X151951709Y-84500455D01*
X151835182Y-84455685D01*
X151724080Y-84418966D01*
X151569400Y-84379832D01*
X151447770Y-84365190D01*
X151399993Y-84372429D01*
X151327521Y-84462475D01*
X151316160Y-84582172D01*
X150686890Y-84582172D01*
X150604388Y-84506353D01*
X150504643Y-84465299D01*
X150405346Y-84454319D01*
X150343345Y-84493325D01*
X150295837Y-84565015D01*
X150253677Y-84690202D01*
X149965373Y-84690202D01*
X149602060Y-84060925D01*
X149433083Y-83767543D01*
X149307840Y-83546941D01*
X149221224Y-83387938D01*
X149168131Y-83279353D01*
X149143455Y-83210005D01*
X149142091Y-83168714D01*
X149158934Y-83144300D01*
X149177813Y-83131845D01*
X149214549Y-83116770D01*
X149251054Y-83125905D01*
X149297027Y-83171355D01*
X149362167Y-83265225D01*
X149456172Y-83419624D01*
X149584825Y-83639905D01*
X149907717Y-84196532D01*
X150541077Y-84377633D01*
X150776092Y-84442392D01*
X150977788Y-84493379D01*
X151127814Y-84526294D01*
X151207812Y-84536839D01*
X151214812Y-84535423D01*
X151253546Y-84487129D01*
X151211383Y-84430818D01*
X151084485Y-84364418D01*
X150869013Y-84285858D01*
X150602679Y-84204904D01*
X150561217Y-84193009D01*
X151423847Y-84193009D01*
X151493979Y-84273660D01*
X151645846Y-84341616D01*
X151723908Y-84365310D01*
X151891520Y-84406712D01*
X151992097Y-84409342D01*
X152050083Y-84367090D01*
X152089916Y-84273849D01*
X152089918Y-84273845D01*
X152111513Y-84182794D01*
X152092901Y-84121698D01*
X152017157Y-84072839D01*
X151867357Y-84018495D01*
X151836442Y-84008449D01*
X151638531Y-83962692D01*
X151507903Y-83978318D01*
X151435086Y-84057182D01*
X151424181Y-84089284D01*
X151423847Y-84193009D01*
X150561217Y-84193009D01*
X149973531Y-84024408D01*
X149558091Y-83304844D01*
X149690775Y-83340397D01*
X149811415Y-83406385D01*
X149923267Y-83546448D01*
X149940413Y-83574804D01*
X149992720Y-83657889D01*
X150048041Y-83720081D01*
X150124577Y-83770861D01*
X150240533Y-83819709D01*
X150414113Y-83876108D01*
X150655320Y-83947160D01*
X150883685Y-84010651D01*
X151078832Y-84059701D01*
X151221715Y-84089898D01*
X151293286Y-84096825D01*
X151296440Y-84095741D01*
X151342066Y-84046316D01*
X151310439Y-83991557D01*
X151196703Y-83928619D01*
X150996000Y-83854652D01*
X150765428Y-83784434D01*
X150521977Y-83712905D01*
X150353922Y-83657356D01*
X150242894Y-83608418D01*
X150170523Y-83556716D01*
X150118439Y-83492878D01*
X150084939Y-83437228D01*
X150023020Y-83295306D01*
X149996000Y-83166058D01*
X149996846Y-83138949D01*
X149982304Y-82982206D01*
X149893071Y-82887061D01*
X149791161Y-82858630D01*
X149700708Y-82845741D01*
X149698426Y-82831767D01*
X149754389Y-82812674D01*
X149818714Y-82813404D01*
X149963075Y-82826349D01*
X150173211Y-82849561D01*
X150434862Y-82881096D01*
X150733765Y-82919012D01*
X151055661Y-82961361D01*
X151386289Y-83006201D01*
X151711388Y-83051587D01*
X152016697Y-83095573D01*
X152287954Y-83136216D01*
X152510899Y-83171572D01*
X152671272Y-83199695D01*
X152754810Y-83218642D01*
X152763405Y-83222960D01*
X152734184Y-83244147D01*
X152707487Y-83250086D01*
X152649465Y-83302734D01*
X152599771Y-83419993D01*
X152565005Y-83569357D01*
X152551768Y-83718321D01*
X152566658Y-83834379D01*
X152582614Y-83865146D01*
X152676624Y-83931774D01*
X152774063Y-83910011D01*
X152864325Y-83807581D01*
X152864409Y-83807378D01*
X152942565Y-83807378D01*
X152963507Y-83953480D01*
X153043132Y-84034705D01*
X153123945Y-84048082D01*
X153206397Y-84041929D01*
X153257293Y-84015492D01*
X153292368Y-83946809D01*
X153327358Y-83813914D01*
X153344223Y-83740620D01*
X153380552Y-83581068D01*
X153394956Y-83490370D01*
X153384724Y-83442168D01*
X153347146Y-83410109D01*
X153307757Y-83386051D01*
X153190644Y-83342466D01*
X153097903Y-83380304D01*
X153020328Y-83505812D01*
X152983434Y-83606232D01*
X152942565Y-83807378D01*
X152864409Y-83807378D01*
X152936808Y-83632202D01*
X152945242Y-83601062D01*
X152979316Y-83448238D01*
X152980097Y-83358871D01*
X152944133Y-83303980D01*
X152906693Y-83277523D01*
X152853776Y-83240041D01*
X152866836Y-83226989D01*
X152958080Y-83234977D01*
X153026297Y-83244304D01*
X153193917Y-83281536D01*
X153341813Y-83336256D01*
X153377105Y-83355441D01*
X153445186Y-83404224D01*
X153473780Y-83457742D01*
X153465782Y-83543768D01*
X153424086Y-83690078D01*
X153415012Y-83719231D01*
X153365054Y-83925780D01*
X153369623Y-84062796D01*
X153430683Y-84142420D01*
X153487114Y-84165638D01*
X153588510Y-84166657D01*
X153669277Y-84099942D01*
X153740449Y-83953599D01*
X153772512Y-83857862D01*
X153851461Y-83601984D01*
X153791894Y-83863056D01*
X153759739Y-84059663D01*
X153774075Y-84184939D01*
X153838506Y-84254701D01*
X153885168Y-84272297D01*
X154003186Y-84266852D01*
X154091374Y-84174920D01*
X154139641Y-84052368D01*
X154188722Y-83883729D01*
X154907480Y-84380145D01*
X155141556Y-84544224D01*
X155348529Y-84693867D01*
X155514646Y-84818765D01*
X155626158Y-84908608D01*
X155668195Y-84950476D01*
X155676748Y-85029910D01*
X155607197Y-85079441D01*
X155475098Y-85094912D01*
X155296007Y-85072159D01*
X155252258Y-85061718D01*
X155098027Y-85025773D01*
X155013365Y-85020993D01*
X154975086Y-85049720D01*
X154963494Y-85090893D01*
X154966472Y-85149424D01*
X155012290Y-85193758D01*
X155120464Y-85236705D01*
X155238462Y-85271337D01*
X155419074Y-85313264D01*
X155545426Y-85316638D01*
X155652653Y-85280886D01*
X155683520Y-85264083D01*
X155836657Y-85175670D01*
X156100571Y-85570070D01*
X156221360Y-85756810D01*
X156373262Y-86000932D01*
X156539649Y-86275230D01*
X156703892Y-86552493D01*
X156760508Y-86649899D01*
X156910775Y-86913011D01*
X157014652Y-87103040D01*
X157076707Y-87229596D01*
X157101503Y-87302292D01*
X157093606Y-87330736D01*
X157084538Y-87332048D01*
X157012854Y-87317997D01*
X156867775Y-87281882D01*
X156669139Y-87228879D01*
X156563058Y-87199332D01*
X156436787Y-87164162D01*
X156391299Y-87151206D01*
G37*
G36*
X154044242Y-83792579D02*
G01*
X154057448Y-83813066D01*
X154065694Y-83892892D01*
X154043702Y-84013684D01*
X154041516Y-84021108D01*
X153987088Y-84142841D01*
X153935586Y-84174234D01*
X153901786Y-84121354D01*
X153900469Y-83990266D01*
X153903926Y-83964629D01*
X153939962Y-83819096D01*
X153988328Y-83760173D01*
X154044242Y-83792579D01*
G37*
G36*
X153631386Y-83599468D02*
G01*
X153671197Y-83656824D01*
X153665303Y-83781437D01*
X153649606Y-83856343D01*
X153608715Y-83995212D01*
X153565402Y-84055957D01*
X153514952Y-84059329D01*
X153470371Y-84025575D01*
X153465521Y-83944589D01*
X153496732Y-83802454D01*
X153542288Y-83660449D01*
X153585458Y-83598913D01*
X153631386Y-83599468D01*
G37*
G36*
X152855037Y-83381670D02*
G01*
X152862433Y-83459843D01*
X152841945Y-83587457D01*
X152830410Y-83631051D01*
X152783650Y-83757465D01*
X152733789Y-83805588D01*
X152695165Y-83804115D01*
X152648551Y-83767044D01*
X152645759Y-83677877D01*
X152664572Y-83586615D01*
X152716366Y-83436652D01*
X152776249Y-83356034D01*
X152834064Y-83355687D01*
X152855037Y-83381670D01*
G37*
G36*
X149819274Y-83035539D02*
G01*
X149843305Y-83094215D01*
X149834696Y-83138306D01*
X149780443Y-83201345D01*
X149712332Y-83174158D01*
X149685857Y-83137614D01*
X149690098Y-83073254D01*
X149750236Y-83030093D01*
X149819274Y-83035539D01*
G37*
G36*
X149555605Y-82959395D02*
G01*
X149535111Y-83025908D01*
X149504904Y-83085668D01*
X149471626Y-83057794D01*
X149467551Y-83050893D01*
X149467679Y-82975061D01*
X149493259Y-82949722D01*
X149550270Y-82924285D01*
X149555605Y-82959395D01*
G37*
G36*
X147488140Y-84243098D02*
G01*
X147658212Y-84281403D01*
X147894862Y-84344952D01*
X148201102Y-84433230D01*
X149060738Y-84685536D01*
X149833475Y-86019908D01*
X150047403Y-86389661D01*
X150216984Y-86684346D01*
X150346658Y-86912881D01*
X150440866Y-87084186D01*
X150504050Y-87207183D01*
X150540654Y-87290789D01*
X150555116Y-87343926D01*
X150551879Y-87375512D01*
X150535385Y-87394469D01*
X150522094Y-87402846D01*
X150497203Y-87414029D01*
X150471050Y-87411835D01*
X150438053Y-87387887D01*
X150392632Y-87333812D01*
X150329206Y-87241233D01*
X150242194Y-87101775D01*
X150126017Y-86907062D01*
X149975094Y-86648720D01*
X149783843Y-86318373D01*
X149682039Y-86142092D01*
X148926103Y-84832773D01*
X148038928Y-84581201D01*
X147730920Y-84492976D01*
X147506034Y-84425641D01*
X147353605Y-84374811D01*
X147262971Y-84336099D01*
X147223468Y-84305118D01*
X147224434Y-84277482D01*
X147246610Y-84255276D01*
X147295415Y-84232474D01*
X147371567Y-84227601D01*
X147488140Y-84243098D01*
G37*
G36*
X152448264Y-92504367D02*
G01*
X152472578Y-92529559D01*
X152471105Y-92604757D01*
X152445914Y-92629073D01*
X152370715Y-92627598D01*
X152346400Y-92602408D01*
X152347874Y-92527208D01*
X152373065Y-92502894D01*
X152448264Y-92504367D01*
G37*
G36*
X149325667Y-87471821D02*
G01*
X149328293Y-87553113D01*
X149323849Y-87562146D01*
X149270595Y-87580394D01*
X149231667Y-87560179D01*
X149179345Y-87488736D01*
X149205173Y-87441681D01*
X149247395Y-87435499D01*
X149325667Y-87471821D01*
G37*
G36*
X151782665Y-92420206D02*
G01*
X151794743Y-92488055D01*
X151764714Y-92517651D01*
X151694225Y-92518034D01*
X151667136Y-92475848D01*
X151667982Y-92396356D01*
X151722077Y-92378766D01*
X151782665Y-92420206D01*
G37*
G36*
X151111657Y-92044600D02*
G01*
X151153390Y-92090164D01*
X151170305Y-92165866D01*
X151141299Y-92190636D01*
X151062799Y-92175616D01*
X151013189Y-92119461D01*
X151017220Y-92057612D01*
X151036627Y-92040745D01*
X151111657Y-92044600D01*
G37*
G36*
X144531719Y-88130641D02*
G01*
X144705579Y-88158757D01*
X144765891Y-88173775D01*
X145150099Y-88326480D01*
X145496385Y-88568557D01*
X145804799Y-88900042D01*
X146028929Y-89237670D01*
X146237964Y-89671756D01*
X146355953Y-90093362D01*
X146382123Y-90507402D01*
X146315698Y-90918794D01*
X146155907Y-91332452D01*
X145901976Y-91753291D01*
X145567191Y-92170546D01*
X145397276Y-92381228D01*
X145303423Y-92555840D01*
X145280709Y-92711933D01*
X145324210Y-92867068D01*
X145355258Y-92926281D01*
X145429929Y-93036210D01*
X145514264Y-93104844D01*
X145626731Y-93135324D01*
X145785795Y-93130793D01*
X146009923Y-93094394D01*
X146160853Y-93063374D01*
X146662311Y-92992642D01*
X147141999Y-92995897D01*
X147586777Y-93071265D01*
X147983505Y-93216874D01*
X148222213Y-93357214D01*
X148336570Y-93441605D01*
X148429466Y-93524554D01*
X148516307Y-93625046D01*
X148612503Y-93762061D01*
X148733464Y-93954582D01*
X148811130Y-94082705D01*
X148991348Y-94394966D01*
X149116359Y-94643527D01*
X149191991Y-94840246D01*
X149203375Y-94880800D01*
X149273258Y-95244655D01*
X149276894Y-95555200D01*
X149212239Y-95832015D01*
X149077246Y-96094680D01*
X149076406Y-96095967D01*
X148942521Y-96282490D01*
X148760082Y-96511382D01*
X148550392Y-96757524D01*
X148334756Y-96995797D01*
X148162886Y-97173192D01*
X148063265Y-97301885D01*
X147963693Y-97477886D01*
X147908436Y-97604878D01*
X147841580Y-97768880D01*
X147773940Y-97874959D01*
X147676240Y-97958050D01*
X147545563Y-98037932D01*
X147288784Y-98186183D01*
X146853583Y-97694398D01*
X146597609Y-97403214D01*
X146396163Y-97168595D01*
X146237796Y-96975820D01*
X146111062Y-96810168D01*
X146004512Y-96656917D01*
X145906698Y-96501345D01*
X145846899Y-96399827D01*
X145681834Y-96086609D01*
X145505389Y-95702582D01*
X145327562Y-95271688D01*
X145158349Y-94817868D01*
X145040328Y-94468218D01*
X144896441Y-94066288D01*
X144728190Y-93691396D01*
X144524796Y-93325684D01*
X144275481Y-92951297D01*
X143969466Y-92550377D01*
X143655364Y-92173819D01*
X143294340Y-91743029D01*
X142995398Y-91358279D01*
X142748042Y-91001059D01*
X142541778Y-90652856D01*
X142366106Y-90295160D01*
X142210533Y-89909459D01*
X142064560Y-89477243D01*
X141993281Y-89242605D01*
X141830605Y-88691617D01*
X142086948Y-88526714D01*
X142238665Y-88435203D01*
X142345846Y-88392169D01*
X142441644Y-88387781D01*
X142511987Y-88400645D01*
X142624629Y-88422541D01*
X142732892Y-88430775D01*
X142856456Y-88422993D01*
X143015004Y-88396840D01*
X143228217Y-88349963D01*
X143511144Y-88281158D01*
X143854665Y-88200693D01*
X144126065Y-88149914D01*
X144345148Y-88127129D01*
X144531719Y-88130641D01*
G37*
G36*
X156097078Y-86300876D02*
G01*
X156142703Y-86362960D01*
X156142540Y-86418214D01*
X156096724Y-86457708D01*
X156028111Y-86433157D01*
X155997967Y-86397087D01*
X156000745Y-86324023D01*
X156026064Y-86300056D01*
X156097078Y-86300876D01*
G37*
G36*
X156402653Y-87697738D02*
G01*
X156426967Y-87722929D01*
X156425494Y-87798128D01*
X156400302Y-87822443D01*
X156325104Y-87820970D01*
X156300789Y-87795778D01*
X156302263Y-87720580D01*
X156327453Y-87696265D01*
X156402653Y-87697738D01*
G37*
G36*
X154558490Y-84875801D02*
G01*
X154725257Y-84935089D01*
X154800091Y-85007609D01*
X154793024Y-85071729D01*
X154737468Y-85084291D01*
X154621555Y-85068879D01*
X154544993Y-85049893D01*
X154405187Y-85001642D01*
X154344210Y-84954114D01*
X154340908Y-84906702D01*
X154377711Y-84859872D01*
X154466110Y-84856798D01*
X154558490Y-84875801D01*
G37*
G36*
X156949923Y-88822979D02*
G01*
X156950470Y-88893629D01*
X156916747Y-88916345D01*
X156831130Y-88917247D01*
X156806416Y-88867458D01*
X156844518Y-88810392D01*
X156916538Y-88790684D01*
X156949923Y-88822979D01*
G37*
G36*
X154926716Y-89009694D02*
G01*
X154927221Y-89081326D01*
X154918723Y-89101447D01*
X154857416Y-89143394D01*
X154788690Y-89123740D01*
X154758647Y-89059703D01*
X154761437Y-89042708D01*
X154814164Y-88980869D01*
X154890502Y-88977698D01*
X154926716Y-89009694D01*
G37*
G36*
X154410188Y-85302936D02*
G01*
X154481854Y-85317320D01*
X154619547Y-85365323D01*
X154705221Y-85422694D01*
X154721658Y-85475645D01*
X154702472Y-85494016D01*
X154639512Y-85493328D01*
X154518459Y-85469315D01*
X154448326Y-85450792D01*
X154306225Y-85392924D01*
X154255264Y-85337992D01*
X154291301Y-85302496D01*
X154410188Y-85302936D01*
G37*
G36*
X152623474Y-84099115D02*
G01*
X152835002Y-84147151D01*
X152966088Y-84183253D01*
X153317232Y-84285336D01*
X153586430Y-84364321D01*
X153784836Y-84424812D01*
X153923603Y-84471412D01*
X154013886Y-84508722D01*
X154066836Y-84541347D01*
X154093607Y-84573888D01*
X154105354Y-84610947D01*
X154113132Y-84656610D01*
X154106081Y-84727907D01*
X154077487Y-84874952D01*
X154031309Y-85079769D01*
X153971510Y-85324384D01*
X153932549Y-85475879D01*
X153850163Y-85779226D01*
X153782598Y-85999627D01*
X153725245Y-86149311D01*
X153673494Y-86240499D01*
X153628437Y-86282348D01*
X153532698Y-86296556D01*
X153367048Y-86280682D01*
X153151846Y-86240513D01*
X152907448Y-86181830D01*
X152654214Y-86110417D01*
X152412501Y-86032059D01*
X152202667Y-85952539D01*
X152045069Y-85877641D01*
X151960066Y-85813148D01*
X151956206Y-85807261D01*
X151934135Y-85743441D01*
X151931111Y-85649448D01*
X151949305Y-85511060D01*
X151990887Y-85314058D01*
X152058029Y-85044220D01*
X152093042Y-84910767D01*
X152177087Y-84609817D01*
X152253833Y-84366449D01*
X152319345Y-84191899D01*
X152369685Y-84097397D01*
X152382229Y-84085731D01*
X152466379Y-84077610D01*
X152623474Y-84099115D01*
G37*
G36*
X154369457Y-85713967D02*
G01*
X154516348Y-85757128D01*
X154582493Y-85800816D01*
X154583491Y-85857871D01*
X154572549Y-85881141D01*
X154511984Y-85903461D01*
X154394397Y-85894561D01*
X154336353Y-85881485D01*
X154205076Y-85837386D01*
X154151741Y-85790567D01*
X154151566Y-85746019D01*
X154187427Y-85698391D01*
X154273093Y-85694294D01*
X154369457Y-85713967D01*
G37*
G36*
X153252047Y-83497602D02*
G01*
X153267234Y-83562897D01*
X153240924Y-83693570D01*
X153228464Y-83737709D01*
X153171817Y-83873628D01*
X153118417Y-83918631D01*
X153083102Y-83878243D01*
X153080709Y-83757986D01*
X153092631Y-83687153D01*
X153130751Y-83560656D01*
X153175156Y-83486608D01*
X153192712Y-83478463D01*
X153252047Y-83497602D01*
G37*
G36*
X154266137Y-86141448D02*
G01*
X154427962Y-86186946D01*
X154502104Y-86239751D01*
X154498015Y-86306668D01*
X154497332Y-86307952D01*
X154441777Y-86320513D01*
X154325863Y-86305100D01*
X154249302Y-86286114D01*
X154101216Y-86227929D01*
X154039974Y-86172356D01*
X154063899Y-86133789D01*
X154171316Y-86126626D01*
X154266137Y-86141448D01*
G37*
G36*
X156014361Y-90722806D02*
G01*
X156059987Y-90784891D01*
X156059824Y-90840145D01*
X156014007Y-90879638D01*
X155945393Y-90855087D01*
X155915250Y-90819017D01*
X155918028Y-90745953D01*
X155943347Y-90721986D01*
X156014361Y-90722806D01*
G37*
G36*
X154614123Y-92467837D02*
G01*
X154626201Y-92535687D01*
X154596172Y-92565282D01*
X154525682Y-92565665D01*
X154498594Y-92523480D01*
X154499440Y-92443988D01*
X154553534Y-92426398D01*
X154614123Y-92467837D01*
G37*
G36*
X151747829Y-84087133D02*
G01*
X151914596Y-84146422D01*
X151989429Y-84218942D01*
X151982363Y-84283063D01*
X151926807Y-84295624D01*
X151810893Y-84280211D01*
X151734333Y-84261226D01*
X151594526Y-84212975D01*
X151533549Y-84165446D01*
X151530247Y-84118035D01*
X151567050Y-84071206D01*
X151655449Y-84068130D01*
X151747829Y-84087133D01*
G37*
G36*
X153315177Y-86608261D02*
G01*
X153349823Y-86661870D01*
X153333990Y-86793291D01*
X153319890Y-86846809D01*
X153268266Y-86988488D01*
X153218468Y-87039299D01*
X153197126Y-87034999D01*
X153168783Y-86973776D01*
X153175169Y-86865792D01*
X153206713Y-86745643D01*
X153253845Y-86647924D01*
X153306994Y-86607233D01*
X153315177Y-86608261D01*
G37*
G36*
X156276106Y-92053101D02*
G01*
X156307826Y-92081771D01*
X156308194Y-92153275D01*
X156299166Y-92174764D01*
X156243555Y-92204042D01*
X156176958Y-92176721D01*
X156144642Y-92115389D01*
X156146843Y-92098755D01*
X156199166Y-92048995D01*
X156276106Y-92053101D01*
G37*
G36*
X155185546Y-93343280D02*
G01*
X155187861Y-93417894D01*
X155181345Y-93433134D01*
X155123720Y-93477375D01*
X155060687Y-93469262D01*
X155039890Y-93426809D01*
X155072340Y-93362649D01*
X155135881Y-93326622D01*
X155185546Y-93343280D01*
G37*
G36*
X151577187Y-84496180D02*
G01*
X151652579Y-84516686D01*
X151803232Y-84567704D01*
X151875478Y-84610490D01*
X151885870Y-84657242D01*
X151875704Y-84681117D01*
X151820149Y-84693679D01*
X151704235Y-84678266D01*
X151627674Y-84659280D01*
X151482083Y-84606642D01*
X151422428Y-84553390D01*
X151421523Y-84523799D01*
X151466584Y-84485860D01*
X151577187Y-84496180D01*
G37*
G36*
X152944720Y-86475045D02*
G01*
X152967461Y-86521961D01*
X152951032Y-86631132D01*
X152923437Y-86734524D01*
X152876322Y-86869477D01*
X152828749Y-86926217D01*
X152782565Y-86927734D01*
X152736679Y-86892039D01*
X152732762Y-86806220D01*
X152755889Y-86695072D01*
X152802461Y-86565116D01*
X152857895Y-86484159D01*
X152879841Y-86472554D01*
X152944720Y-86475045D01*
G37*
G36*
X151470109Y-84904386D02*
G01*
X151533449Y-84918376D01*
X151689550Y-84963376D01*
X151765626Y-85005095D01*
X151777587Y-85055450D01*
X151763055Y-85090305D01*
X151696839Y-85124118D01*
X151585214Y-85113113D01*
X151461394Y-85069514D01*
X151358590Y-85005541D01*
X151310019Y-84933414D01*
X151309435Y-84923392D01*
X151353046Y-84895348D01*
X151470109Y-84904386D01*
G37*
G36*
X152514307Y-86364324D02*
G01*
X152526478Y-86458826D01*
X152509001Y-86582854D01*
X152455946Y-86742767D01*
X152384509Y-86808235D01*
X152380258Y-86809045D01*
X152334911Y-86801202D01*
X152325617Y-86744673D01*
X152350847Y-86620339D01*
X152361802Y-86578540D01*
X152418396Y-86423783D01*
X152473756Y-86352511D01*
X152514307Y-86364324D01*
G37*
G36*
X153541450Y-88673634D02*
G01*
X153587077Y-88735719D01*
X153586913Y-88790973D01*
X153541097Y-88830466D01*
X153472484Y-88805916D01*
X153442339Y-88769846D01*
X153445118Y-88696781D01*
X153470437Y-88672815D01*
X153541450Y-88673634D01*
G37*
G36*
X152131024Y-86308761D02*
G01*
X152109552Y-86453874D01*
X152098563Y-86494892D01*
X152040378Y-86642978D01*
X151984803Y-86704220D01*
X151946237Y-86680295D01*
X151939074Y-86572878D01*
X151953896Y-86478057D01*
X151989215Y-86346066D01*
X152025989Y-86260439D01*
X152037920Y-86247289D01*
X152106606Y-86237696D01*
X152131024Y-86308761D01*
G37*
G36*
X151433706Y-85329079D02*
G01*
X151435641Y-85329628D01*
X151584528Y-85374451D01*
X151657809Y-85408452D01*
X151673937Y-85445036D01*
X151655764Y-85489536D01*
X151595696Y-85510895D01*
X151476489Y-85503235D01*
X151403926Y-85488261D01*
X151263643Y-85444007D01*
X151201643Y-85396281D01*
X151195715Y-85348985D01*
X151222384Y-85302665D01*
X151294306Y-85296628D01*
X151433706Y-85329079D01*
G37*
G36*
X155287072Y-92079310D02*
G01*
X155299150Y-92147159D01*
X155269121Y-92176755D01*
X155198632Y-92177137D01*
X155171544Y-92134952D01*
X155172389Y-92055460D01*
X155226483Y-92037871D01*
X155287072Y-92079310D01*
G37*
G36*
X154150625Y-93316041D02*
G01*
X154174940Y-93341233D01*
X154173466Y-93416431D01*
X154148275Y-93440745D01*
X154073076Y-93439273D01*
X154048762Y-93414082D01*
X154050235Y-93338882D01*
X154075427Y-93314568D01*
X154150625Y-93316041D01*
G37*
G36*
X150535947Y-84632290D02*
G01*
X150579108Y-84692429D01*
X150573663Y-84761465D01*
X150519269Y-84784806D01*
X150445236Y-84764641D01*
X150403125Y-84718394D01*
X150403812Y-84704079D01*
X150452151Y-84641407D01*
X150471587Y-84628049D01*
X150535947Y-84632290D01*
G37*
G36*
X152412965Y-88649158D02*
G01*
X152473792Y-88743515D01*
X152530285Y-88857655D01*
X152529859Y-88922762D01*
X152486805Y-88960319D01*
X152423626Y-88977984D01*
X152366381Y-88935005D01*
X152305555Y-88840647D01*
X152249062Y-88726507D01*
X152249488Y-88661401D01*
X152292541Y-88623844D01*
X152355720Y-88606179D01*
X152412965Y-88649158D01*
G37*
D12*
%TO.C,J4*%
X174867230Y-80784639D02*
X172788770Y-81984639D01*
X172788770Y-81984639D02*
X171588770Y-79906179D01*
X171588770Y-79906179D02*
X173667230Y-78706179D01*
X173667230Y-78706179D02*
X174867230Y-80784639D01*
%TO.C,J6*%
X170318770Y-77706474D02*
X172397230Y-76506474D01*
X173597230Y-78584934D02*
X171518770Y-79784934D01*
X171518770Y-79784934D02*
X170318770Y-77706474D01*
X172397230Y-76506474D02*
X173597230Y-78584934D01*
%TO.C,D1*%
X153642000Y-70376000D02*
X153642000Y-72126000D01*
X153642000Y-70376000D02*
X146842000Y-70376000D01*
X154942000Y-72126000D02*
X155342000Y-72126000D01*
X146842000Y-70376000D02*
X146842000Y-72126000D01*
X145142000Y-77226000D02*
X146842000Y-77226000D01*
X155342000Y-77226000D02*
X153642000Y-77226000D01*
X146842000Y-77226000D02*
X146842000Y-78976000D01*
X153642000Y-72126000D02*
X154942000Y-72126000D01*
X153642000Y-78976000D02*
X146842000Y-78976000D01*
X153642000Y-77226000D02*
X153642000Y-78976000D01*
X142492000Y-72126000D02*
X146842000Y-72126000D01*
%TO.C,D3*%
X163151833Y-93697514D02*
X161636289Y-92822514D01*
X158236289Y-98711486D02*
X161636289Y-92822514D01*
X163518563Y-103262319D02*
X163318563Y-103608730D01*
X164001833Y-92225270D02*
X163151833Y-93697514D01*
X169084107Y-97122514D02*
X167568563Y-96247514D01*
X158901833Y-101058730D02*
X159751833Y-99586486D01*
X169743563Y-92480303D02*
X167568563Y-96247514D01*
X165684107Y-103011486D02*
X164168563Y-102136486D01*
X165684107Y-103011486D02*
X169084107Y-97122514D01*
X159751833Y-99586486D02*
X158236289Y-98711486D01*
X164168563Y-102136486D02*
X163518563Y-103262319D01*
%TO.C,J3*%
X168978770Y-75385525D02*
X167778770Y-73307065D01*
X171057230Y-74185525D02*
X168978770Y-75385525D01*
X169857230Y-72107065D02*
X171057230Y-74185525D01*
X167778770Y-73307065D02*
X169857230Y-72107065D01*
%TO.C,J2*%
X174058770Y-84184343D02*
X172858770Y-82105883D01*
X174937230Y-80905883D02*
X176137230Y-82984343D01*
X176137230Y-82984343D02*
X174058770Y-84184343D01*
X172858770Y-82105883D02*
X174937230Y-80905883D01*
%TO.C,D2*%
X131399893Y-97122514D02*
X132915437Y-96247514D01*
X132915437Y-96247514D02*
X132265437Y-95121681D01*
X141582167Y-101058730D02*
X140732167Y-99586486D01*
X140732167Y-99586486D02*
X142247711Y-98711486D01*
X137332167Y-93697514D02*
X138847711Y-92822514D01*
X132265437Y-95121681D02*
X132065437Y-94775270D01*
X131399893Y-97122514D02*
X134799893Y-103011486D01*
X138490437Y-105903697D02*
X136315437Y-102136486D01*
X138847711Y-92822514D02*
X142247711Y-98711486D01*
X134799893Y-103011486D02*
X136315437Y-102136486D01*
X136482167Y-92225270D02*
X137332167Y-93697514D01*
%TO.C,J5*%
X170248770Y-77585230D02*
X169048770Y-75506770D01*
X169048770Y-75506770D02*
X171127230Y-74306770D01*
X172327230Y-76385230D02*
X170248770Y-77585230D01*
X171127230Y-74306770D02*
X172327230Y-76385230D01*
%TO.C,J1*%
X166508770Y-71107361D02*
X168587230Y-69907361D01*
X169787230Y-71985821D02*
X167708770Y-73185821D01*
X167708770Y-73185821D02*
X166508770Y-71107361D01*
X168587230Y-69907361D02*
X169787230Y-71985821D01*
%TD*%
M02*
