%TF.GenerationSoftware,KiCad,Pcbnew,(5.99.0-11336-g5116fa6d12)*%
%TF.CreationDate,2021-07-16T01:57:22+02:00*%
%TF.ProjectId,LED_PCB_60mm,4c45445f-5043-4425-9f36-306d6d2e6b69,rev?*%
%TF.SameCoordinates,Original*%
%TF.FileFunction,Copper,L1,Top*%
%TF.FilePolarity,Positive*%
%FSLAX46Y46*%
G04 Gerber Fmt 4.6, Leading zero omitted, Abs format (unit mm)*
G04 Created by KiCad (PCBNEW (5.99.0-11336-g5116fa6d12)) date 2021-07-16 01:57:22*
%MOMM*%
%LPD*%
G01*
G04 APERTURE LIST*
G04 Aperture macros list*
%AMRotRect*
0 Rectangle, with rotation*
0 The origin of the aperture is its center*
0 $1 length*
0 $2 width*
0 $3 Rotation angle, in degrees counterclockwise*
0 Add horizontal line*
21,1,$1,$2,0,0,$3*%
G04 Aperture macros list end*
%TA.AperFunction,NonConductor*%
%ADD10C,1.000000*%
%TD*%
%TA.AperFunction,SMDPad,CuDef*%
%ADD11RotRect,2.000000X2.000000X300.000000*%
%TD*%
%TA.AperFunction,SMDPad,CuDef*%
%ADD12R,3.100000X1.200000*%
%TD*%
%TA.AperFunction,SMDPad,CuDef*%
%ADD13C,5.700000*%
%TD*%
%TA.AperFunction,SMDPad,CuDef*%
%ADD14RotRect,3.100000X1.200000X240.000000*%
%TD*%
%TA.AperFunction,SMDPad,CuDef*%
%ADD15RotRect,3.100000X1.200000X60.000000*%
%TD*%
%TA.AperFunction,SMDPad,CuDef*%
%ADD16RotRect,3.100000X1.200000X120.000000*%
%TD*%
%TA.AperFunction,SMDPad,CuDef*%
%ADD17RotRect,3.100000X1.200000X300.000000*%
%TD*%
%TA.AperFunction,Conductor*%
%ADD18C,0.250000*%
%TD*%
G04 APERTURE END LIST*
D10*
X159958846Y-104358473D02*
G75*
G02*
X140589396Y-104337600I-9679234J5105817D01*
G01*
X131673598Y-92405201D02*
G75*
G02*
X142849600Y-72999600I10692891J6762811D01*
G01*
X169113200Y-73914000D02*
G75*
G02*
X157716857Y-74685339I-9985390J62956931D01*
G01*
X171145200Y-78587600D02*
G75*
G03*
X165963600Y-90627200I16581487J-14271164D01*
G01*
X172669199Y-80721199D02*
G75*
G03*
X167487600Y-91287600I13510788J-13179171D01*
G01*
X167894000Y-71526400D02*
G75*
G02*
X157632400Y-72999600I-9089707J26839236D01*
G01*
X158411758Y-103609237D02*
G75*
G02*
X142117402Y-103631382I-8153000J4272642D01*
G01*
X161461942Y-105133108D02*
G75*
G02*
X139068197Y-105157207I-11203212J5878910D01*
G01*
X133095999Y-91490799D02*
G75*
G02*
X142798800Y-74726800I9261384J5829554D01*
G01*
X174040800Y-82753200D02*
G75*
G03*
X168910000Y-92100400I16298044J-15027990D01*
G01*
X134518400Y-90525600D02*
G75*
G02*
X142646400Y-76403200I7776717J4924385D01*
G01*
X170129200Y-75895200D02*
G75*
G02*
X157657316Y-76380688I-9279669J77948701D01*
G01*
D11*
%TO.P,J4,1,Pin_1*%
%TO.N,Net-(D3-Pad2)*%
X173228000Y-80345409D03*
%TD*%
%TO.P,J6,1,Pin_1*%
%TO.N,Net-(D3-Pad3)*%
X171958000Y-78145704D03*
%TD*%
D12*
%TO.P,D1,1,RK*%
%TO.N,Net-(D1-Pad1)*%
X144022000Y-72976000D03*
%TO.P,D1,2,GK*%
%TO.N,Net-(D1-Pad2)*%
X144022000Y-74676000D03*
%TO.P,D1,3,BK*%
%TO.N,Net-(D1-Pad3)*%
X144022000Y-76376000D03*
%TO.P,D1,4,BA*%
%TO.N,Net-(D1-Pad4)*%
X156462000Y-76376000D03*
%TO.P,D1,5,GA*%
%TO.N,Net-(D1-Pad5)*%
X156462000Y-74676000D03*
%TO.P,D1,6,RA*%
%TO.N,Net-(D1-Pad6)*%
X156462000Y-72976000D03*
D13*
%TO.P,D1,PAD*%
%TO.N,GND*%
X150242000Y-74676000D03*
%TD*%
D14*
%TO.P,D3,1,RK*%
%TO.N,Net-(D3-Pad1)*%
X168242441Y-93380322D03*
%TO.P,D3,2,GK*%
%TO.N,Net-(D3-Pad2)*%
X166770198Y-92530322D03*
%TO.P,D3,3,BK*%
%TO.N,Net-(D3-Pad3)*%
X165297955Y-91680322D03*
D15*
%TO.P,D3,4,BA*%
%TO.N,Net-(D2-Pad3)*%
X159077955Y-102453678D03*
%TO.P,D3,5,GA*%
%TO.N,Net-(D2-Pad2)*%
X160550198Y-103303678D03*
%TO.P,D3,6,RA*%
%TO.N,Net-(D2-Pad1)*%
X162022441Y-104153678D03*
D13*
%TO.P,D3,PAD*%
%TO.N,GND*%
X163660198Y-97917000D03*
%TD*%
D11*
%TO.P,J3,1,Pin_1*%
%TO.N,Net-(D1-Pad5)*%
X169418000Y-73746295D03*
%TD*%
%TO.P,J2,1,Pin_1*%
%TO.N,Net-(D3-Pad1)*%
X174498000Y-82545113D03*
%TD*%
D16*
%TO.P,D2,1,RK*%
%TO.N,Net-(D2-Pad1)*%
X138461559Y-104153678D03*
%TO.P,D2,2,GK*%
%TO.N,Net-(D2-Pad2)*%
X139933802Y-103303678D03*
%TO.P,D2,3,BK*%
%TO.N,Net-(D2-Pad3)*%
X141406045Y-102453678D03*
D17*
%TO.P,D2,4,BA*%
%TO.N,Net-(D1-Pad3)*%
X135186045Y-91680322D03*
%TO.P,D2,5,GA*%
%TO.N,Net-(D1-Pad2)*%
X133713802Y-92530322D03*
%TO.P,D2,6,RA*%
%TO.N,Net-(D1-Pad1)*%
X132241559Y-93380322D03*
D13*
%TO.P,D2,PAD*%
%TO.N,GND*%
X136823802Y-97917000D03*
%TD*%
D11*
%TO.P,J5,1,Pin_1*%
%TO.N,Net-(D1-Pad4)*%
X170688000Y-75946000D03*
%TD*%
%TO.P,J1,1,Pin_1*%
%TO.N,Net-(D1-Pad6)*%
X168148000Y-71546591D03*
%TD*%
D18*
%TO.N,Net-(D1-Pad2)*%
X144022000Y-74676000D02*
X143072000Y-74676000D01*
%TO.N,Net-(D1-Pad3)*%
X144022000Y-76450000D02*
X144018000Y-76454000D01*
X144022000Y-76376000D02*
X144022000Y-76450000D01*
%TD*%
%TA.AperFunction,Conductor*%
%TO.N,GND*%
G36*
X151021566Y-60686688D02*
G01*
X151269244Y-60691011D01*
X151273639Y-60691165D01*
X152297380Y-60744817D01*
X152301768Y-60745123D01*
X153323085Y-60834476D01*
X153327459Y-60834936D01*
X154344994Y-60959874D01*
X154349349Y-60960486D01*
X154615705Y-61002672D01*
X155361946Y-61120865D01*
X155366231Y-61121621D01*
X156372596Y-61317238D01*
X156376875Y-61318148D01*
X157152364Y-61497184D01*
X157375811Y-61548771D01*
X157380078Y-61549835D01*
X158370354Y-61815178D01*
X158374565Y-61816387D01*
X158825854Y-61954359D01*
X159354943Y-62116118D01*
X159359126Y-62117477D01*
X160328464Y-62451247D01*
X160332596Y-62452751D01*
X161289672Y-62820138D01*
X161293750Y-62821785D01*
X161713099Y-62999788D01*
X162237469Y-63222370D01*
X162241460Y-63224147D01*
X163170636Y-63657429D01*
X163174528Y-63659327D01*
X163986718Y-64073158D01*
X164088014Y-64124771D01*
X164091897Y-64126836D01*
X164988551Y-64623860D01*
X164992325Y-64626039D01*
X165871122Y-65154073D01*
X165874819Y-65156384D01*
X166304727Y-65435569D01*
X166734618Y-65714744D01*
X166738263Y-65717203D01*
X167578052Y-66305228D01*
X167581611Y-66307813D01*
X168400376Y-66924798D01*
X168403841Y-66927506D01*
X169200532Y-67572653D01*
X169203901Y-67575480D01*
X169977623Y-68248067D01*
X169980892Y-68251009D01*
X170730696Y-68950212D01*
X170733859Y-68953268D01*
X171458732Y-69678141D01*
X171461787Y-69681303D01*
X171627009Y-69858482D01*
X172160991Y-70431108D01*
X172163933Y-70434377D01*
X172836520Y-71208099D01*
X172839347Y-71211468D01*
X173484494Y-72008159D01*
X173487200Y-72011622D01*
X174026174Y-72726862D01*
X174104187Y-72830389D01*
X174106772Y-72833948D01*
X174694797Y-73673737D01*
X174697256Y-73677382D01*
X175255606Y-74537164D01*
X175257927Y-74540878D01*
X175781204Y-75411756D01*
X175785951Y-75419657D01*
X175788140Y-75423449D01*
X175983563Y-75776000D01*
X176285164Y-76320103D01*
X176287229Y-76323986D01*
X176752673Y-77237472D01*
X176754571Y-77241364D01*
X177168708Y-78129483D01*
X177187847Y-78170527D01*
X177189630Y-78174531D01*
X177327870Y-78500203D01*
X177590215Y-79118250D01*
X177591862Y-79122328D01*
X177959249Y-80079404D01*
X177960753Y-80083536D01*
X178294523Y-81052874D01*
X178295882Y-81057057D01*
X178359758Y-81265986D01*
X178586612Y-82007991D01*
X178595611Y-82037427D01*
X178596824Y-82041655D01*
X178862165Y-83031922D01*
X178863229Y-83036189D01*
X179071492Y-83938269D01*
X179093850Y-84035113D01*
X179094762Y-84039404D01*
X179256501Y-84871478D01*
X179290375Y-85045746D01*
X179291135Y-85050054D01*
X179350783Y-85426656D01*
X179451514Y-86062651D01*
X179452126Y-86067006D01*
X179577064Y-87084541D01*
X179577524Y-87088915D01*
X179666877Y-88110232D01*
X179667183Y-88114620D01*
X179720835Y-89138361D01*
X179720989Y-89142756D01*
X179736228Y-90015737D01*
X179738882Y-90167801D01*
X179738882Y-90172177D01*
X179729320Y-90719964D01*
X179720989Y-91197244D01*
X179720835Y-91201639D01*
X179667183Y-92225380D01*
X179666877Y-92229768D01*
X179577524Y-93251085D01*
X179577064Y-93255459D01*
X179452126Y-94272994D01*
X179451514Y-94277349D01*
X179358506Y-94864585D01*
X179291139Y-95289923D01*
X179290379Y-95294231D01*
X179243466Y-95535579D01*
X179094764Y-96300585D01*
X179093850Y-96304887D01*
X178863229Y-97303811D01*
X178862165Y-97308078D01*
X178596824Y-98298345D01*
X178595611Y-98302573D01*
X178295882Y-99282943D01*
X178294523Y-99287126D01*
X177960753Y-100256464D01*
X177959249Y-100260596D01*
X177591862Y-101217672D01*
X177590215Y-101221750D01*
X177231583Y-102066635D01*
X177189636Y-102165455D01*
X177187853Y-102169460D01*
X176754571Y-103098636D01*
X176752673Y-103102528D01*
X176516656Y-103565738D01*
X176287229Y-104016014D01*
X176285164Y-104019897D01*
X176001433Y-104531762D01*
X175788150Y-104916534D01*
X175785961Y-104920325D01*
X175257937Y-105799106D01*
X175255616Y-105802819D01*
X175093277Y-106052800D01*
X174697256Y-106662618D01*
X174694797Y-106666263D01*
X174106772Y-107506052D01*
X174104193Y-107509602D01*
X174086435Y-107533168D01*
X173487202Y-108328376D01*
X173484494Y-108331841D01*
X172839347Y-109128532D01*
X172836520Y-109131901D01*
X172163933Y-109905623D01*
X172160992Y-109908891D01*
X171640572Y-110466974D01*
X171461788Y-110658696D01*
X171458732Y-110661859D01*
X170733859Y-111386732D01*
X170730696Y-111389788D01*
X169980892Y-112088991D01*
X169977623Y-112091933D01*
X169203901Y-112764520D01*
X169200532Y-112767347D01*
X168403841Y-113412494D01*
X168400376Y-113415202D01*
X167581611Y-114032187D01*
X167578052Y-114034772D01*
X166738263Y-114622797D01*
X166734618Y-114625256D01*
X166304727Y-114904431D01*
X165874819Y-115183616D01*
X165871122Y-115185927D01*
X164992325Y-115713961D01*
X164988551Y-115716140D01*
X164392623Y-116046469D01*
X164091897Y-116213164D01*
X164088014Y-116215229D01*
X163174528Y-116680673D01*
X163170636Y-116682571D01*
X162241460Y-117115853D01*
X162237469Y-117117630D01*
X161713099Y-117340212D01*
X161293750Y-117518215D01*
X161289672Y-117519862D01*
X160332596Y-117887249D01*
X160328464Y-117888753D01*
X159359126Y-118222523D01*
X159354943Y-118223882D01*
X158825854Y-118385641D01*
X158578920Y-118461136D01*
X158374573Y-118523611D01*
X158370354Y-118524822D01*
X157683572Y-118708844D01*
X157380078Y-118790165D01*
X157375811Y-118791229D01*
X156376875Y-119021852D01*
X156372596Y-119022762D01*
X155366231Y-119218379D01*
X155361946Y-119219135D01*
X154615705Y-119337328D01*
X154349349Y-119379514D01*
X154344994Y-119380126D01*
X153327459Y-119505064D01*
X153323085Y-119505524D01*
X152301768Y-119594877D01*
X152297380Y-119595183D01*
X151273639Y-119648835D01*
X151269244Y-119648989D01*
X151021566Y-119653312D01*
X150244177Y-119666882D01*
X150239823Y-119666882D01*
X149462434Y-119653312D01*
X149214756Y-119648989D01*
X149210361Y-119648835D01*
X148186620Y-119595183D01*
X148182232Y-119594877D01*
X147160915Y-119505524D01*
X147156541Y-119505064D01*
X146139006Y-119380126D01*
X146134651Y-119379514D01*
X145868295Y-119337328D01*
X145122054Y-119219135D01*
X145117769Y-119218379D01*
X144111404Y-119022762D01*
X144107125Y-119021852D01*
X143108189Y-118791229D01*
X143103922Y-118790165D01*
X142800428Y-118708844D01*
X142113646Y-118524822D01*
X142109427Y-118523611D01*
X141905081Y-118461136D01*
X141658146Y-118385641D01*
X141129057Y-118223882D01*
X141124874Y-118222523D01*
X140155536Y-117888753D01*
X140151404Y-117887249D01*
X139194328Y-117519862D01*
X139190250Y-117518215D01*
X138770901Y-117340212D01*
X138246531Y-117117630D01*
X138242540Y-117115853D01*
X137313364Y-116682571D01*
X137309472Y-116680673D01*
X136395986Y-116215229D01*
X136392103Y-116213164D01*
X136091377Y-116046469D01*
X135495449Y-115716140D01*
X135491675Y-115713961D01*
X134612878Y-115185927D01*
X134609181Y-115183616D01*
X134179273Y-114904431D01*
X133749382Y-114625256D01*
X133745737Y-114622797D01*
X132905948Y-114034772D01*
X132902389Y-114032187D01*
X132083624Y-113415202D01*
X132080159Y-113412494D01*
X131283468Y-112767347D01*
X131280099Y-112764520D01*
X130506377Y-112091933D01*
X130503108Y-112088991D01*
X129753304Y-111389788D01*
X129750141Y-111386732D01*
X129025268Y-110661859D01*
X129022212Y-110658696D01*
X128843429Y-110466974D01*
X128323008Y-109908891D01*
X128320067Y-109905623D01*
X127647480Y-109131901D01*
X127644653Y-109128532D01*
X126999506Y-108331841D01*
X126996798Y-108328376D01*
X126397565Y-107533168D01*
X126379807Y-107509602D01*
X126377228Y-107506052D01*
X125789203Y-106666263D01*
X125786744Y-106662618D01*
X125390723Y-106052800D01*
X125228384Y-105802819D01*
X125226063Y-105799106D01*
X124698039Y-104920325D01*
X124695850Y-104916534D01*
X124482568Y-104531762D01*
X124198836Y-104019897D01*
X124196771Y-104016014D01*
X123967344Y-103565738D01*
X123731327Y-103102528D01*
X123729429Y-103098636D01*
X123723959Y-103086906D01*
X136654026Y-103086906D01*
X136667919Y-103232401D01*
X136722240Y-103368089D01*
X136724494Y-103371994D01*
X136724495Y-103371995D01*
X138082304Y-105723788D01*
X138272240Y-106052767D01*
X138273497Y-106054624D01*
X138273500Y-106054629D01*
X138275579Y-106057701D01*
X138313306Y-106113442D01*
X138419085Y-106214302D01*
X138427091Y-106218429D01*
X138427099Y-106218435D01*
X138505188Y-106258692D01*
X138553877Y-106303233D01*
X138913885Y-106871250D01*
X138913896Y-106871266D01*
X138914778Y-106872658D01*
X138915739Y-106874010D01*
X138915747Y-106874022D01*
X139167603Y-107228376D01*
X139334283Y-107462891D01*
X139335327Y-107464206D01*
X139335329Y-107464209D01*
X139766557Y-108007509D01*
X139784466Y-108030073D01*
X140264063Y-108572610D01*
X140771726Y-109088980D01*
X141063119Y-109355531D01*
X141304793Y-109576601D01*
X141304804Y-109576611D01*
X141306030Y-109577732D01*
X141307313Y-109578786D01*
X141307316Y-109578789D01*
X141843464Y-110019404D01*
X141865476Y-110037494D01*
X142448490Y-110466974D01*
X142449888Y-110467894D01*
X142449897Y-110467900D01*
X142631178Y-110587164D01*
X143053438Y-110864967D01*
X143678619Y-111230355D01*
X143680127Y-111231132D01*
X143680132Y-111231135D01*
X144320785Y-111561342D01*
X144320801Y-111561350D01*
X144322278Y-111562111D01*
X144982608Y-111859305D01*
X144984189Y-111859918D01*
X145656170Y-112120488D01*
X145656177Y-112120491D01*
X145657754Y-112121102D01*
X146345821Y-112346766D01*
X146721992Y-112448414D01*
X147043264Y-112535228D01*
X147043275Y-112535231D01*
X147044875Y-112535663D01*
X147752955Y-112687265D01*
X148468071Y-112801143D01*
X149188216Y-112876980D01*
X149911367Y-112914561D01*
X150269775Y-112914175D01*
X150633833Y-112913784D01*
X150633841Y-112913784D01*
X150635493Y-112913782D01*
X151025876Y-112892651D01*
X151356905Y-112874734D01*
X151356917Y-112874733D01*
X151358562Y-112874644D01*
X151824840Y-112824527D01*
X152076879Y-112797437D01*
X152076888Y-112797436D01*
X152078542Y-112797258D01*
X152793411Y-112681840D01*
X152795029Y-112681490D01*
X152795034Y-112681489D01*
X153034353Y-112629711D01*
X153501163Y-112528715D01*
X154199809Y-112338314D01*
X154559379Y-112219528D01*
X154885809Y-112111691D01*
X154885821Y-112111687D01*
X154887388Y-112111169D01*
X154888937Y-112110565D01*
X154888944Y-112110562D01*
X155560420Y-111848525D01*
X155560424Y-111848523D01*
X155561970Y-111847920D01*
X156193370Y-111562111D01*
X156220154Y-111549987D01*
X156220160Y-111549984D01*
X156221658Y-111549306D01*
X156223127Y-111548545D01*
X156863121Y-111216932D01*
X156863139Y-111216922D01*
X156864602Y-111216164D01*
X157488995Y-110849432D01*
X158067614Y-110466974D01*
X158091689Y-110451061D01*
X158091696Y-110451056D01*
X158093085Y-110450138D01*
X158486798Y-110158799D01*
X158673819Y-110020407D01*
X158673827Y-110020401D01*
X158675174Y-110019404D01*
X158676467Y-110018337D01*
X158676482Y-110018325D01*
X159232334Y-109559507D01*
X159233628Y-109558439D01*
X159766879Y-109068538D01*
X160273430Y-108551077D01*
X160274524Y-108549835D01*
X160274538Y-108549819D01*
X160750748Y-108008771D01*
X160750762Y-108008754D01*
X160751858Y-108007509D01*
X161126581Y-107533307D01*
X161199776Y-107440680D01*
X161199778Y-107440678D01*
X161200819Y-107439360D01*
X161619053Y-106848225D01*
X161975516Y-106283117D01*
X162008999Y-106247703D01*
X162064636Y-106208084D01*
X162121412Y-106167654D01*
X162211760Y-106052767D01*
X162216290Y-106044921D01*
X163760638Y-103370033D01*
X163760642Y-103370025D01*
X163761760Y-103368089D01*
X163793773Y-103302188D01*
X163828231Y-103160150D01*
X163821276Y-103014159D01*
X163773473Y-102876040D01*
X163688694Y-102756984D01*
X163573806Y-102666635D01*
X163569909Y-102664385D01*
X162536520Y-102067757D01*
X162536512Y-102067753D01*
X162534576Y-102066635D01*
X162532559Y-102065655D01*
X162532553Y-102065652D01*
X162511677Y-102055511D01*
X162468675Y-102034622D01*
X162326637Y-102000164D01*
X162327110Y-101998216D01*
X162271962Y-101976139D01*
X162247214Y-101950183D01*
X162221680Y-101914326D01*
X162221677Y-101914323D01*
X162216451Y-101906984D01*
X162101563Y-101816635D01*
X161726966Y-101600361D01*
X161064277Y-101217757D01*
X161064269Y-101217753D01*
X161062333Y-101216635D01*
X161060316Y-101215655D01*
X161060310Y-101215652D01*
X161039434Y-101205511D01*
X160996432Y-101184622D01*
X160854394Y-101150164D01*
X160854867Y-101148216D01*
X160799719Y-101126139D01*
X160774971Y-101100183D01*
X160749437Y-101064326D01*
X160749434Y-101064323D01*
X160744208Y-101056984D01*
X160629320Y-100966635D01*
X160625423Y-100964385D01*
X159592034Y-100367757D01*
X159592026Y-100367753D01*
X159590090Y-100366635D01*
X159588073Y-100365655D01*
X159588067Y-100365652D01*
X159559911Y-100351975D01*
X159524189Y-100334622D01*
X159382151Y-100300164D01*
X159373145Y-100300593D01*
X159373144Y-100300593D01*
X159245163Y-100306690D01*
X159245162Y-100306690D01*
X159236160Y-100307119D01*
X159227643Y-100310067D01*
X159227642Y-100310067D01*
X159106555Y-100351975D01*
X159106553Y-100351976D01*
X159098041Y-100354922D01*
X158978984Y-100439702D01*
X158888636Y-100554589D01*
X158886386Y-100558485D01*
X158886386Y-100558486D01*
X157347781Y-103223428D01*
X157338636Y-103239267D01*
X157306623Y-103305168D01*
X157272165Y-103447206D01*
X157272594Y-103456212D01*
X157272594Y-103456213D01*
X157276074Y-103529256D01*
X157259770Y-103597493D01*
X157246083Y-103621585D01*
X157241606Y-103628876D01*
X156939160Y-104085920D01*
X156934199Y-104092891D01*
X156601424Y-104528362D01*
X156596001Y-104534980D01*
X156234443Y-104946858D01*
X156228583Y-104953093D01*
X155839910Y-105339477D01*
X155833642Y-105345299D01*
X155419611Y-105704441D01*
X155412992Y-105709799D01*
X155112852Y-105936363D01*
X154975557Y-106040001D01*
X154968557Y-106044921D01*
X154509735Y-106344665D01*
X154502417Y-106349099D01*
X154024307Y-106617013D01*
X154016705Y-106620940D01*
X153521514Y-106855789D01*
X153513663Y-106859191D01*
X153479443Y-106872658D01*
X153003664Y-107059895D01*
X152995614Y-107062750D01*
X152976280Y-107068880D01*
X152473174Y-107228376D01*
X152464935Y-107230683D01*
X152198703Y-107295576D01*
X151932459Y-107360471D01*
X151924107Y-107362208D01*
X151384027Y-107455563D01*
X151375575Y-107456729D01*
X151079371Y-107487418D01*
X150830423Y-107513211D01*
X150821887Y-107513803D01*
X150548034Y-107523479D01*
X150274171Y-107533156D01*
X150265635Y-107533168D01*
X149717841Y-107515303D01*
X149709331Y-107514736D01*
X149164024Y-107459735D01*
X149155552Y-107458589D01*
X148615245Y-107366709D01*
X148606864Y-107364989D01*
X148588094Y-107360468D01*
X148074030Y-107236647D01*
X148065812Y-107234370D01*
X147542914Y-107070161D01*
X147534847Y-107067323D01*
X147024312Y-106868009D01*
X147016451Y-106864629D01*
X146910612Y-106814786D01*
X146520612Y-106631122D01*
X146513024Y-106627228D01*
X146207403Y-106457060D01*
X146034176Y-106360608D01*
X146026846Y-106356194D01*
X145567215Y-106057701D01*
X145560201Y-106052800D01*
X145121870Y-105723788D01*
X145115219Y-105718434D01*
X144700226Y-105360430D01*
X144693951Y-105354633D01*
X144304215Y-104969292D01*
X144298339Y-104963073D01*
X144286866Y-104950074D01*
X143935678Y-104552197D01*
X143930237Y-104545594D01*
X143596269Y-104111016D01*
X143591296Y-104104070D01*
X143287602Y-103647839D01*
X143283110Y-103640568D01*
X143226873Y-103542207D01*
X143210828Y-103491646D01*
X143200542Y-103383928D01*
X143200542Y-103383927D01*
X143199685Y-103374955D01*
X143145364Y-103239267D01*
X142979650Y-102952241D01*
X141596491Y-100556541D01*
X141595364Y-100554589D01*
X141592972Y-100551054D01*
X141585642Y-100540224D01*
X141554298Y-100493914D01*
X141448519Y-100393054D01*
X141318609Y-100326081D01*
X141309759Y-100324375D01*
X141309758Y-100324375D01*
X141183941Y-100300126D01*
X141183939Y-100300126D01*
X141175093Y-100298421D01*
X141088496Y-100306690D01*
X141038571Y-100311457D01*
X141038570Y-100311457D01*
X141029598Y-100312314D01*
X141021230Y-100315664D01*
X140984891Y-100330212D01*
X140893910Y-100366635D01*
X140890005Y-100368889D01*
X140890004Y-100368890D01*
X139858577Y-100964385D01*
X139854680Y-100966635D01*
X139852823Y-100967892D01*
X139852818Y-100967895D01*
X139840315Y-100976357D01*
X139794005Y-101007701D01*
X139693145Y-101113480D01*
X139691694Y-101112097D01*
X139645001Y-101148818D01*
X139610147Y-101157273D01*
X139566328Y-101161457D01*
X139566327Y-101161457D01*
X139557355Y-101162314D01*
X139421667Y-101216635D01*
X139417762Y-101218889D01*
X139417761Y-101218890D01*
X138757034Y-101600361D01*
X138382437Y-101816635D01*
X138380580Y-101817892D01*
X138380575Y-101817895D01*
X138368072Y-101826357D01*
X138321762Y-101857701D01*
X138220902Y-101963480D01*
X138219451Y-101962097D01*
X138172758Y-101998818D01*
X138137904Y-102007273D01*
X138094085Y-102011457D01*
X138094084Y-102011457D01*
X138085112Y-102012314D01*
X137949424Y-102066635D01*
X137945519Y-102068889D01*
X137945518Y-102068890D01*
X136914091Y-102664385D01*
X136910194Y-102666635D01*
X136908337Y-102667892D01*
X136908332Y-102667895D01*
X136895829Y-102676357D01*
X136849519Y-102707701D01*
X136748659Y-102813480D01*
X136681686Y-102943390D01*
X136679980Y-102952240D01*
X136679980Y-102952241D01*
X136668047Y-103014159D01*
X136654026Y-103086906D01*
X123723959Y-103086906D01*
X123296147Y-102169460D01*
X123294364Y-102165455D01*
X123252418Y-102066635D01*
X122893785Y-101221750D01*
X122892138Y-101217672D01*
X122524751Y-100260596D01*
X122523247Y-100256464D01*
X122189477Y-99287126D01*
X122188118Y-99282943D01*
X121888389Y-98302573D01*
X121887176Y-98298345D01*
X121621835Y-97308078D01*
X121620771Y-97303811D01*
X121390150Y-96304887D01*
X121389236Y-96300585D01*
X121240534Y-95535579D01*
X121193621Y-95294231D01*
X121192861Y-95289923D01*
X121125495Y-94864585D01*
X121032486Y-94277349D01*
X121031874Y-94272994D01*
X120906936Y-93255459D01*
X120906476Y-93251085D01*
X120817123Y-92229768D01*
X120816817Y-92225380D01*
X120763165Y-91201639D01*
X120763011Y-91197244D01*
X120754680Y-90719964D01*
X120745118Y-90172177D01*
X120745118Y-90170000D01*
X124828873Y-90170000D01*
X124849349Y-90430170D01*
X124850503Y-90434977D01*
X124850504Y-90434983D01*
X124888339Y-90592577D01*
X124910272Y-90683935D01*
X124912165Y-90688506D01*
X124912166Y-90688508D01*
X124920515Y-90708663D01*
X125010143Y-90925044D01*
X125146502Y-91147562D01*
X125149709Y-91151317D01*
X125149712Y-91151321D01*
X125190800Y-91199428D01*
X125315992Y-91346008D01*
X125319748Y-91349216D01*
X125510679Y-91512288D01*
X125510683Y-91512291D01*
X125514438Y-91515498D01*
X125736956Y-91651857D01*
X125741526Y-91653750D01*
X125741530Y-91653752D01*
X125973492Y-91749834D01*
X125978065Y-91751728D01*
X126065119Y-91772628D01*
X126227017Y-91811496D01*
X126227023Y-91811497D01*
X126231830Y-91812651D01*
X126492000Y-91833127D01*
X126752170Y-91812651D01*
X126756977Y-91811497D01*
X126756983Y-91811496D01*
X126918881Y-91772628D01*
X127005935Y-91751728D01*
X127010508Y-91749834D01*
X127242470Y-91653752D01*
X127242474Y-91653750D01*
X127247044Y-91651857D01*
X127469562Y-91515498D01*
X127473317Y-91512291D01*
X127473321Y-91512288D01*
X127664252Y-91349216D01*
X127668008Y-91346008D01*
X127793200Y-91199428D01*
X127834288Y-91151321D01*
X127834291Y-91151317D01*
X127837498Y-91147562D01*
X127973857Y-90925044D01*
X128063486Y-90708663D01*
X128071834Y-90688508D01*
X128071835Y-90688506D01*
X128073728Y-90683935D01*
X128095661Y-90592577D01*
X128133496Y-90434983D01*
X128133497Y-90434977D01*
X128134651Y-90430170D01*
X128155127Y-90170000D01*
X128134651Y-89909830D01*
X128073728Y-89656065D01*
X128036521Y-89566240D01*
X127975752Y-89419530D01*
X127975750Y-89419526D01*
X127973857Y-89414956D01*
X127837498Y-89192438D01*
X127834291Y-89188683D01*
X127834288Y-89188679D01*
X127671216Y-88997748D01*
X127668008Y-88993992D01*
X127639354Y-88969519D01*
X127473321Y-88827712D01*
X127473317Y-88827709D01*
X127469562Y-88824502D01*
X127247044Y-88688143D01*
X127242474Y-88686250D01*
X127242470Y-88686248D01*
X127010508Y-88590166D01*
X127010506Y-88590165D01*
X127005935Y-88588272D01*
X126918881Y-88567372D01*
X126756983Y-88528504D01*
X126756977Y-88528503D01*
X126752170Y-88527349D01*
X126492000Y-88506873D01*
X126231830Y-88527349D01*
X126227023Y-88528503D01*
X126227017Y-88528504D01*
X126065119Y-88567372D01*
X125978065Y-88588272D01*
X125973494Y-88590165D01*
X125973492Y-88590166D01*
X125741530Y-88686248D01*
X125741526Y-88686250D01*
X125736956Y-88688143D01*
X125514438Y-88824502D01*
X125510683Y-88827709D01*
X125510679Y-88827712D01*
X125344646Y-88969519D01*
X125315992Y-88993992D01*
X125312784Y-88997748D01*
X125149712Y-89188679D01*
X125149709Y-89188683D01*
X125146502Y-89192438D01*
X125010143Y-89414956D01*
X125008250Y-89419526D01*
X125008248Y-89419530D01*
X124947479Y-89566240D01*
X124910272Y-89656065D01*
X124849349Y-89909830D01*
X124829406Y-90163228D01*
X124828873Y-90170000D01*
X120745118Y-90170000D01*
X120745118Y-90167801D01*
X120747773Y-90015737D01*
X120763011Y-89142756D01*
X120763165Y-89138361D01*
X120816817Y-88114620D01*
X120817123Y-88110232D01*
X120906476Y-87088915D01*
X120906936Y-87084541D01*
X121031874Y-86067006D01*
X121032486Y-86062651D01*
X121133217Y-85426656D01*
X121140249Y-85382260D01*
X128704186Y-85382260D01*
X128704571Y-85433850D01*
X128709263Y-86062651D01*
X128709589Y-86106366D01*
X128709690Y-86108029D01*
X128709690Y-86108039D01*
X128742325Y-86647163D01*
X128753343Y-86829170D01*
X128835325Y-87548641D01*
X128835606Y-87550311D01*
X128835606Y-87550314D01*
X128930043Y-88112399D01*
X128955305Y-88262759D01*
X128955666Y-88264376D01*
X128955669Y-88264393D01*
X129014321Y-88527349D01*
X129112946Y-88969519D01*
X129113400Y-88971143D01*
X129113400Y-88971144D01*
X129307356Y-89665330D01*
X129307362Y-89665349D01*
X129307805Y-89666935D01*
X129539335Y-90353050D01*
X129806887Y-91025936D01*
X130109707Y-91683705D01*
X130110480Y-91685174D01*
X130110486Y-91685186D01*
X130420873Y-92274963D01*
X130434801Y-92321667D01*
X130447919Y-92459045D01*
X130502240Y-92594733D01*
X130504494Y-92598638D01*
X130504495Y-92598639D01*
X131737241Y-94733817D01*
X132052240Y-95279411D01*
X132053497Y-95281268D01*
X132053500Y-95281273D01*
X132059355Y-95289923D01*
X132093306Y-95340086D01*
X132199085Y-95440946D01*
X132328995Y-95507919D01*
X132337845Y-95509625D01*
X132337846Y-95509625D01*
X132463663Y-95533874D01*
X132463665Y-95533874D01*
X132472511Y-95535579D01*
X132566753Y-95526580D01*
X132609033Y-95522543D01*
X132609034Y-95522543D01*
X132618006Y-95521686D01*
X132652395Y-95507919D01*
X132749505Y-95469042D01*
X132753694Y-95467365D01*
X132892515Y-95387217D01*
X133790972Y-94868492D01*
X133792924Y-94867365D01*
X133797032Y-94864585D01*
X133807289Y-94857643D01*
X133853599Y-94826299D01*
X133954459Y-94720520D01*
X133955910Y-94721903D01*
X134002603Y-94685182D01*
X134037457Y-94676727D01*
X134081276Y-94672543D01*
X134081277Y-94672543D01*
X134090249Y-94671686D01*
X134225937Y-94617365D01*
X135265167Y-94017365D01*
X135269275Y-94014585D01*
X135279532Y-94007643D01*
X135325842Y-93976299D01*
X135426702Y-93870520D01*
X135428153Y-93871903D01*
X135474846Y-93835182D01*
X135509700Y-93826727D01*
X135553519Y-93822543D01*
X135553520Y-93822543D01*
X135562492Y-93821686D01*
X135698180Y-93767365D01*
X136737410Y-93167365D01*
X136741518Y-93164585D01*
X136751775Y-93157643D01*
X136798085Y-93126299D01*
X136898945Y-93020520D01*
X136965918Y-92890610D01*
X136977916Y-92828359D01*
X136991873Y-92755942D01*
X136991873Y-92755940D01*
X136993578Y-92747094D01*
X136979685Y-92601599D01*
X136925364Y-92465911D01*
X136389540Y-91537836D01*
X135376491Y-89783185D01*
X135375364Y-89781233D01*
X135334298Y-89720558D01*
X135228519Y-89619698D01*
X135155505Y-89582057D01*
X135104562Y-89533819D01*
X135090538Y-89509912D01*
X135086469Y-89502402D01*
X134841882Y-89011955D01*
X134838325Y-89004173D01*
X134640187Y-88528504D01*
X134627578Y-88498233D01*
X134624561Y-88490236D01*
X134579670Y-88357780D01*
X134448641Y-87971172D01*
X134446172Y-87962979D01*
X134305891Y-87433187D01*
X134303983Y-87424847D01*
X134199980Y-86886756D01*
X134198642Y-86878305D01*
X134131396Y-86334382D01*
X134130635Y-86325859D01*
X134127202Y-86263588D01*
X134100461Y-85778636D01*
X134100280Y-85770082D01*
X134105279Y-85380584D01*
X134107314Y-85222048D01*
X134107715Y-85213507D01*
X134135396Y-84871478D01*
X134151925Y-84667244D01*
X134152903Y-84658751D01*
X134153133Y-84657220D01*
X134234088Y-84116735D01*
X134235642Y-84108322D01*
X134353426Y-83573061D01*
X134355542Y-83564792D01*
X134509392Y-83038720D01*
X134512053Y-83030651D01*
X134701243Y-82516259D01*
X134704466Y-82508337D01*
X134928123Y-82007991D01*
X134931878Y-82000303D01*
X135188979Y-81516284D01*
X135193247Y-81508868D01*
X135342896Y-81268146D01*
X135482607Y-81043411D01*
X135487364Y-81036309D01*
X135568035Y-80924290D01*
X135807638Y-80591576D01*
X135812866Y-80584812D01*
X135815194Y-80582004D01*
X136162589Y-80162835D01*
X136168266Y-80156440D01*
X136173387Y-80151052D01*
X136545840Y-79759153D01*
X136551922Y-79753174D01*
X136955566Y-79382448D01*
X136962058Y-79376880D01*
X137389951Y-79034388D01*
X137396790Y-79029285D01*
X137846946Y-78716620D01*
X137854113Y-78711995D01*
X138324447Y-78430604D01*
X138331916Y-78426474D01*
X138820235Y-78177668D01*
X138827986Y-78174044D01*
X139332082Y-77958945D01*
X139340062Y-77955856D01*
X139857596Y-77775466D01*
X139865738Y-77772934D01*
X140228504Y-77673523D01*
X140394320Y-77628084D01*
X140402644Y-77626104D01*
X140686110Y-77568775D01*
X140939839Y-77517460D01*
X140948268Y-77516052D01*
X141491594Y-77444119D01*
X141500097Y-77443287D01*
X142047037Y-77408395D01*
X142055590Y-77408140D01*
X142168886Y-77408617D01*
X142220697Y-77420001D01*
X142327330Y-77468700D01*
X142336247Y-77469982D01*
X142467552Y-77488861D01*
X142467559Y-77488862D01*
X142472000Y-77489500D01*
X145572000Y-77489500D01*
X145645079Y-77484273D01*
X145723165Y-77461345D01*
X145776670Y-77445635D01*
X145776672Y-77445634D01*
X145785316Y-77443096D01*
X145838966Y-77408617D01*
X145900691Y-77368949D01*
X145900694Y-77368947D01*
X145908271Y-77364077D01*
X145914172Y-77357267D01*
X145998082Y-77260431D01*
X145998084Y-77260428D01*
X146003984Y-77253619D01*
X146064700Y-77120670D01*
X146065982Y-77111754D01*
X146084861Y-76980448D01*
X146084862Y-76980441D01*
X146085500Y-76976000D01*
X146085500Y-75776000D01*
X146080273Y-75702921D01*
X146039096Y-75562684D01*
X146041019Y-75562119D01*
X146032566Y-75503321D01*
X146042669Y-75468912D01*
X146060958Y-75428864D01*
X146060958Y-75428863D01*
X146064700Y-75420670D01*
X146075962Y-75342340D01*
X146084861Y-75280448D01*
X146084862Y-75280441D01*
X146085500Y-75276000D01*
X146085500Y-74076000D01*
X146080273Y-74002921D01*
X146039096Y-73862684D01*
X146041019Y-73862119D01*
X146032566Y-73803321D01*
X146042669Y-73768912D01*
X146060958Y-73728864D01*
X146060958Y-73728863D01*
X146064700Y-73720670D01*
X146075962Y-73642340D01*
X146084861Y-73580448D01*
X146084862Y-73580441D01*
X146085500Y-73576000D01*
X146085500Y-72376000D01*
X154398500Y-72376000D01*
X154398500Y-73576000D01*
X154403727Y-73649079D01*
X154424748Y-73720670D01*
X154444904Y-73789316D01*
X154442981Y-73789881D01*
X154451434Y-73848679D01*
X154441331Y-73883088D01*
X154423042Y-73923136D01*
X154419300Y-73931330D01*
X154418019Y-73940241D01*
X154418018Y-73940244D01*
X154399139Y-74071552D01*
X154399138Y-74071559D01*
X154398500Y-74076000D01*
X154398500Y-75276000D01*
X154403727Y-75349079D01*
X154425569Y-75423466D01*
X154444904Y-75489316D01*
X154442981Y-75489881D01*
X154451434Y-75548679D01*
X154441331Y-75583088D01*
X154423042Y-75623136D01*
X154419300Y-75631330D01*
X154418019Y-75640241D01*
X154418018Y-75640244D01*
X154399139Y-75771552D01*
X154399138Y-75771559D01*
X154398500Y-75776000D01*
X154398500Y-76976000D01*
X154403727Y-77049079D01*
X154444904Y-77189316D01*
X154459157Y-77211494D01*
X154519051Y-77304691D01*
X154519053Y-77304694D01*
X154523923Y-77312271D01*
X154530733Y-77318172D01*
X154627569Y-77402082D01*
X154627572Y-77402084D01*
X154634381Y-77407984D01*
X154642579Y-77411728D01*
X154713508Y-77444120D01*
X154767330Y-77468700D01*
X154776245Y-77469982D01*
X154776246Y-77469982D01*
X154907552Y-77488861D01*
X154907559Y-77488862D01*
X154912000Y-77489500D01*
X158012000Y-77489500D01*
X158085079Y-77484273D01*
X158163165Y-77461345D01*
X158216670Y-77445635D01*
X158216672Y-77445634D01*
X158225316Y-77443096D01*
X158232897Y-77438224D01*
X158240818Y-77433134D01*
X158312807Y-77413193D01*
X159196748Y-77440364D01*
X159196767Y-77440364D01*
X159197340Y-77440382D01*
X159988254Y-77448950D01*
X160778572Y-77457513D01*
X160778615Y-77457513D01*
X160779169Y-77457519D01*
X161760838Y-77448622D01*
X162360396Y-77443188D01*
X162360424Y-77443187D01*
X162361025Y-77443182D01*
X163942283Y-77397378D01*
X163942896Y-77397348D01*
X163942923Y-77397347D01*
X164762651Y-77357267D01*
X165522317Y-77320124D01*
X167100502Y-77211451D01*
X168676212Y-77071402D01*
X168676823Y-77071335D01*
X168676868Y-77071331D01*
X169154930Y-77019236D01*
X169454334Y-76986609D01*
X169524220Y-76999113D01*
X169577101Y-77048866D01*
X169877271Y-77568775D01*
X169918337Y-77629450D01*
X169923222Y-77634108D01*
X169923223Y-77634109D01*
X170017596Y-77724094D01*
X170017599Y-77724096D01*
X170024116Y-77730310D01*
X170032121Y-77734437D01*
X170033478Y-77735403D01*
X170077365Y-77791210D01*
X170085819Y-77826062D01*
X170092950Y-77900741D01*
X170147271Y-78036429D01*
X170149524Y-78040331D01*
X170161161Y-78060487D01*
X170177898Y-78129483D01*
X170154677Y-78196574D01*
X170149090Y-78203843D01*
X169822903Y-78597743D01*
X169822189Y-78598675D01*
X169822178Y-78598689D01*
X169714222Y-78739639D01*
X169293638Y-79288764D01*
X169292968Y-79289712D01*
X168941848Y-79786163D01*
X168791028Y-79999408D01*
X168790372Y-80000415D01*
X168790367Y-80000422D01*
X168688694Y-80156440D01*
X168315802Y-80728647D01*
X168315205Y-80729644D01*
X168315190Y-80729668D01*
X167993424Y-81267037D01*
X167868644Y-81475428D01*
X167868072Y-81476471D01*
X167868059Y-81476494D01*
X167576670Y-82007991D01*
X167450203Y-82238669D01*
X167449663Y-82239749D01*
X167315431Y-82508337D01*
X167061083Y-83017268D01*
X166701848Y-83810099D01*
X166373015Y-84616015D01*
X166357397Y-84658883D01*
X166075476Y-85432712D01*
X166075467Y-85432739D01*
X166075062Y-85433850D01*
X165808419Y-86262422D01*
X165808094Y-86263582D01*
X165808092Y-86263588D01*
X165788246Y-86334382D01*
X165573471Y-87100533D01*
X165573197Y-87101675D01*
X165573191Y-87101699D01*
X165494717Y-87429051D01*
X165370558Y-87946971D01*
X165370322Y-87948152D01*
X165370318Y-87948170D01*
X165307778Y-88261101D01*
X165199974Y-88800512D01*
X165061965Y-89659921D01*
X165061821Y-89661101D01*
X165061821Y-89661103D01*
X165033869Y-89890605D01*
X165017912Y-89938371D01*
X163567781Y-92450072D01*
X163558636Y-92465911D01*
X163526623Y-92531812D01*
X163492165Y-92673850D01*
X163499120Y-92819841D01*
X163546923Y-92957960D01*
X163631702Y-93077016D01*
X163746590Y-93167365D01*
X163750486Y-93169615D01*
X163750487Y-93169615D01*
X164783876Y-93766243D01*
X164783884Y-93766247D01*
X164785820Y-93767365D01*
X164787837Y-93768345D01*
X164787843Y-93768348D01*
X164789272Y-93769042D01*
X164851721Y-93799378D01*
X164993759Y-93833836D01*
X164993286Y-93835784D01*
X165048434Y-93857861D01*
X165073182Y-93883817D01*
X165098716Y-93919674D01*
X165098719Y-93919677D01*
X165103945Y-93927016D01*
X165218833Y-94017365D01*
X165222729Y-94019615D01*
X165222730Y-94019615D01*
X166256119Y-94616243D01*
X166256127Y-94616247D01*
X166258063Y-94617365D01*
X166260080Y-94618345D01*
X166260086Y-94618348D01*
X166261515Y-94619042D01*
X166323964Y-94649378D01*
X166466002Y-94683836D01*
X166465529Y-94685784D01*
X166520677Y-94707861D01*
X166545425Y-94733817D01*
X166570959Y-94769674D01*
X166570962Y-94769677D01*
X166576188Y-94777016D01*
X166691076Y-94867365D01*
X166694972Y-94869615D01*
X166694973Y-94869615D01*
X167728362Y-95466243D01*
X167728370Y-95466247D01*
X167730306Y-95467365D01*
X167732323Y-95468345D01*
X167732329Y-95468348D01*
X167733758Y-95469042D01*
X167796207Y-95499378D01*
X167938245Y-95533836D01*
X167947251Y-95533407D01*
X167947252Y-95533407D01*
X168075233Y-95527310D01*
X168075234Y-95527310D01*
X168084236Y-95526881D01*
X168099246Y-95521686D01*
X168213841Y-95482025D01*
X168213843Y-95482024D01*
X168222355Y-95479078D01*
X168341412Y-95394298D01*
X168431760Y-95279411D01*
X168669655Y-94867365D01*
X169980638Y-92596677D01*
X169980642Y-92596669D01*
X169981760Y-92594733D01*
X170013773Y-92528832D01*
X170048231Y-92386794D01*
X170041276Y-92240803D01*
X170035938Y-92225380D01*
X169996422Y-92111203D01*
X169996420Y-92111200D01*
X169993473Y-92102684D01*
X169992272Y-92100998D01*
X169979502Y-92034728D01*
X169983816Y-92011962D01*
X170119834Y-91537836D01*
X170121340Y-91532964D01*
X170371248Y-90778482D01*
X170389040Y-90724767D01*
X170390739Y-90719964D01*
X170438737Y-90592577D01*
X170487332Y-90463602D01*
X170597957Y-90170000D01*
X172328873Y-90170000D01*
X172349349Y-90430170D01*
X172350503Y-90434977D01*
X172350504Y-90434983D01*
X172388339Y-90592577D01*
X172410272Y-90683935D01*
X172412165Y-90688506D01*
X172412166Y-90688508D01*
X172420515Y-90708663D01*
X172510143Y-90925044D01*
X172646502Y-91147562D01*
X172649709Y-91151317D01*
X172649712Y-91151321D01*
X172690800Y-91199428D01*
X172815992Y-91346008D01*
X172819748Y-91349216D01*
X173010679Y-91512288D01*
X173010683Y-91512291D01*
X173014438Y-91515498D01*
X173236956Y-91651857D01*
X173241526Y-91653750D01*
X173241530Y-91653752D01*
X173473492Y-91749834D01*
X173478065Y-91751728D01*
X173565119Y-91772628D01*
X173727017Y-91811496D01*
X173727023Y-91811497D01*
X173731830Y-91812651D01*
X173992000Y-91833127D01*
X174252170Y-91812651D01*
X174256977Y-91811497D01*
X174256983Y-91811496D01*
X174418881Y-91772628D01*
X174505935Y-91751728D01*
X174510508Y-91749834D01*
X174742470Y-91653752D01*
X174742474Y-91653750D01*
X174747044Y-91651857D01*
X174969562Y-91515498D01*
X174973317Y-91512291D01*
X174973321Y-91512288D01*
X175164252Y-91349216D01*
X175168008Y-91346008D01*
X175293200Y-91199428D01*
X175334288Y-91151321D01*
X175334291Y-91151317D01*
X175337498Y-91147562D01*
X175473857Y-90925044D01*
X175563486Y-90708663D01*
X175571834Y-90688508D01*
X175571835Y-90688506D01*
X175573728Y-90683935D01*
X175595661Y-90592577D01*
X175633496Y-90434983D01*
X175633497Y-90434977D01*
X175634651Y-90430170D01*
X175655127Y-90170000D01*
X175634651Y-89909830D01*
X175573728Y-89656065D01*
X175536521Y-89566240D01*
X175475752Y-89419530D01*
X175475750Y-89419526D01*
X175473857Y-89414956D01*
X175337498Y-89192438D01*
X175334291Y-89188683D01*
X175334288Y-89188679D01*
X175171216Y-88997748D01*
X175168008Y-88993992D01*
X175139354Y-88969519D01*
X174973321Y-88827712D01*
X174973317Y-88827709D01*
X174969562Y-88824502D01*
X174747044Y-88688143D01*
X174742474Y-88686250D01*
X174742470Y-88686248D01*
X174510508Y-88590166D01*
X174510506Y-88590165D01*
X174505935Y-88588272D01*
X174418881Y-88567372D01*
X174256983Y-88528504D01*
X174256977Y-88528503D01*
X174252170Y-88527349D01*
X173992000Y-88506873D01*
X173731830Y-88527349D01*
X173727023Y-88528503D01*
X173727017Y-88528504D01*
X173565119Y-88567372D01*
X173478065Y-88588272D01*
X173473494Y-88590165D01*
X173473492Y-88590166D01*
X173241530Y-88686248D01*
X173241526Y-88686250D01*
X173236956Y-88688143D01*
X173014438Y-88824502D01*
X173010683Y-88827709D01*
X173010679Y-88827712D01*
X172844646Y-88969519D01*
X172815992Y-88993992D01*
X172812784Y-88997748D01*
X172649712Y-89188679D01*
X172649709Y-89188683D01*
X172646502Y-89192438D01*
X172510143Y-89414956D01*
X172508250Y-89419526D01*
X172508248Y-89419530D01*
X172447479Y-89566240D01*
X172410272Y-89656065D01*
X172349349Y-89909830D01*
X172329406Y-90163228D01*
X172328873Y-90170000D01*
X170597957Y-90170000D01*
X170690931Y-89923244D01*
X170692825Y-89918509D01*
X171025024Y-89134562D01*
X171027109Y-89129907D01*
X171089536Y-88997748D01*
X171390737Y-88360094D01*
X171393008Y-88355528D01*
X171787504Y-87601032D01*
X171789958Y-87596561D01*
X171817539Y-87548641D01*
X172214675Y-86858631D01*
X172217303Y-86854272D01*
X172271467Y-86768401D01*
X172671506Y-86134176D01*
X172674313Y-86129918D01*
X173157317Y-85428742D01*
X173160295Y-85424602D01*
X173671238Y-84743603D01*
X173674380Y-84739586D01*
X173908023Y-84453105D01*
X173966577Y-84412957D01*
X174029511Y-84409017D01*
X174107542Y-84424056D01*
X174201784Y-84415057D01*
X174244064Y-84411020D01*
X174244065Y-84411020D01*
X174253037Y-84410163D01*
X174287426Y-84396396D01*
X174384536Y-84357519D01*
X174388725Y-84355842D01*
X174936793Y-84039415D01*
X176118823Y-83356969D01*
X176120775Y-83355842D01*
X176181450Y-83314776D01*
X176282310Y-83208997D01*
X176349283Y-83079087D01*
X176360986Y-83018365D01*
X176375238Y-82944419D01*
X176375238Y-82944417D01*
X176376943Y-82935571D01*
X176363050Y-82790076D01*
X176308729Y-82654388D01*
X176293678Y-82628318D01*
X175309856Y-80924290D01*
X175308729Y-80922338D01*
X175267663Y-80861663D01*
X175262777Y-80857004D01*
X175168404Y-80767019D01*
X175168401Y-80767017D01*
X175161884Y-80760803D01*
X175153879Y-80756676D01*
X175152522Y-80755710D01*
X175108635Y-80699903D01*
X175100181Y-80665051D01*
X175093907Y-80599345D01*
X175093907Y-80599344D01*
X175093050Y-80590372D01*
X175038729Y-80454684D01*
X174856374Y-80138835D01*
X174039856Y-78724586D01*
X174038729Y-78722634D01*
X173997663Y-78661959D01*
X173891884Y-78561099D01*
X173883874Y-78556970D01*
X173882525Y-78556009D01*
X173838637Y-78500203D01*
X173830181Y-78465348D01*
X173823907Y-78399640D01*
X173823907Y-78399639D01*
X173823050Y-78390667D01*
X173768729Y-78254979D01*
X173724094Y-78177668D01*
X172769856Y-76524881D01*
X172768729Y-76522929D01*
X172727663Y-76462254D01*
X172722777Y-76457595D01*
X172628404Y-76367610D01*
X172628401Y-76367608D01*
X172621884Y-76361394D01*
X172613879Y-76357267D01*
X172612522Y-76356301D01*
X172568635Y-76300494D01*
X172560181Y-76265642D01*
X172553907Y-76199936D01*
X172553907Y-76199935D01*
X172553050Y-76190963D01*
X172498729Y-76055275D01*
X172337490Y-75776000D01*
X171499856Y-74325177D01*
X171498729Y-74323225D01*
X171457663Y-74262550D01*
X171351884Y-74161690D01*
X171343874Y-74157561D01*
X171342525Y-74156600D01*
X171298637Y-74100794D01*
X171290181Y-74065939D01*
X171283907Y-74000231D01*
X171283907Y-74000230D01*
X171283050Y-73991258D01*
X171228729Y-73855570D01*
X171224751Y-73848679D01*
X170229856Y-72125472D01*
X170228729Y-72123520D01*
X170187663Y-72062845D01*
X170182777Y-72058186D01*
X170088404Y-71968201D01*
X170088401Y-71968199D01*
X170081884Y-71961985D01*
X170073879Y-71957858D01*
X170072522Y-71956892D01*
X170028635Y-71901085D01*
X170020181Y-71866233D01*
X170013907Y-71800527D01*
X170013907Y-71800526D01*
X170013050Y-71791554D01*
X169958729Y-71655866D01*
X169764305Y-71319113D01*
X168959856Y-69925768D01*
X168958729Y-69923816D01*
X168917663Y-69863141D01*
X168811884Y-69762281D01*
X168681974Y-69695308D01*
X168673124Y-69693602D01*
X168673123Y-69693602D01*
X168547306Y-69669353D01*
X168547304Y-69669353D01*
X168538458Y-69667648D01*
X168444216Y-69676647D01*
X168401936Y-69680684D01*
X168401935Y-69680684D01*
X168392963Y-69681541D01*
X168384595Y-69684891D01*
X168348256Y-69699439D01*
X168257275Y-69735862D01*
X166525225Y-70735862D01*
X166464550Y-70776928D01*
X166363690Y-70882707D01*
X166359562Y-70890714D01*
X166359560Y-70890717D01*
X166350644Y-70908012D01*
X166301650Y-70959394D01*
X166273033Y-70971492D01*
X165946996Y-71063968D01*
X165822847Y-71099181D01*
X165818797Y-71100257D01*
X164935660Y-71319120D01*
X164931616Y-71320051D01*
X164394474Y-71434248D01*
X164041699Y-71509249D01*
X164037563Y-71510057D01*
X163141788Y-71669396D01*
X163137628Y-71670064D01*
X162800388Y-71718480D01*
X162237051Y-71799355D01*
X162232909Y-71799880D01*
X161618137Y-71867245D01*
X161328506Y-71898982D01*
X161324310Y-71899371D01*
X160417128Y-71968173D01*
X160412921Y-71968422D01*
X160066877Y-71983051D01*
X159503878Y-72006851D01*
X159499701Y-72006958D01*
X159084575Y-72010612D01*
X158589945Y-72014966D01*
X158585732Y-72014933D01*
X158484910Y-72012448D01*
X158410409Y-72010612D01*
X158342802Y-71988937D01*
X158331001Y-71979874D01*
X158330869Y-71979759D01*
X158289619Y-71944016D01*
X158195614Y-71901085D01*
X158164864Y-71887042D01*
X158164863Y-71887042D01*
X158156670Y-71883300D01*
X158147755Y-71882018D01*
X158147754Y-71882018D01*
X158016448Y-71863139D01*
X158016441Y-71863138D01*
X158012000Y-71862500D01*
X154912000Y-71862500D01*
X154838921Y-71867727D01*
X154785884Y-71883300D01*
X154707330Y-71906365D01*
X154707328Y-71906366D01*
X154698684Y-71908904D01*
X154691105Y-71913775D01*
X154583309Y-71983051D01*
X154583306Y-71983053D01*
X154575729Y-71987923D01*
X154569828Y-71994733D01*
X154485918Y-72091569D01*
X154485916Y-72091572D01*
X154480016Y-72098381D01*
X154419300Y-72231330D01*
X154418018Y-72240245D01*
X154418018Y-72240246D01*
X154399139Y-72371552D01*
X154399138Y-72371559D01*
X154398500Y-72376000D01*
X146085500Y-72376000D01*
X146080273Y-72302921D01*
X146045297Y-72183803D01*
X146041635Y-72171330D01*
X146041634Y-72171328D01*
X146039096Y-72162684D01*
X145993393Y-72091569D01*
X145964949Y-72047309D01*
X145964947Y-72047306D01*
X145960077Y-72039729D01*
X145931461Y-72014933D01*
X145856431Y-71949918D01*
X145856428Y-71949916D01*
X145849619Y-71944016D01*
X145755614Y-71901085D01*
X145724864Y-71887042D01*
X145724863Y-71887042D01*
X145716670Y-71883300D01*
X145707755Y-71882018D01*
X145707754Y-71882018D01*
X145576448Y-71863139D01*
X145576441Y-71863138D01*
X145572000Y-71862500D01*
X142472000Y-71862500D01*
X142398921Y-71867727D01*
X142345884Y-71883300D01*
X142267330Y-71906365D01*
X142267328Y-71906366D01*
X142258684Y-71908904D01*
X142251105Y-71913775D01*
X142177192Y-71961276D01*
X142114275Y-71981171D01*
X141614425Y-72001829D01*
X141442352Y-72008940D01*
X141442348Y-72008940D01*
X141440685Y-72009009D01*
X141439018Y-72009167D01*
X141439013Y-72009167D01*
X140721433Y-72077038D01*
X140721423Y-72077039D01*
X140719776Y-72077195D01*
X140003491Y-72183474D01*
X139293841Y-72327548D01*
X138592820Y-72509012D01*
X138591254Y-72509507D01*
X138591234Y-72509513D01*
X138078829Y-72671561D01*
X137902396Y-72727358D01*
X137568195Y-72852883D01*
X137226067Y-72981385D01*
X137226053Y-72981391D01*
X137224508Y-72981971D01*
X136561060Y-73272136D01*
X135913915Y-73597040D01*
X135912478Y-73597859D01*
X135912464Y-73597867D01*
X135286345Y-73954937D01*
X135286327Y-73954948D01*
X135284889Y-73955768D01*
X135283488Y-73956669D01*
X135283479Y-73956674D01*
X134677159Y-74346409D01*
X134675750Y-74347315D01*
X134674401Y-74348287D01*
X134674389Y-74348295D01*
X134089577Y-74769594D01*
X134088207Y-74770581D01*
X134086908Y-74771626D01*
X134086897Y-74771634D01*
X133525210Y-75223332D01*
X133523912Y-75224376D01*
X132984448Y-75707427D01*
X132471330Y-76218377D01*
X131986000Y-76755792D01*
X131529820Y-77318161D01*
X131104071Y-77903907D01*
X131103148Y-77905329D01*
X131103145Y-77905334D01*
X130763777Y-78428416D01*
X130709949Y-78511383D01*
X130348561Y-79138885D01*
X130020921Y-79784649D01*
X129727949Y-80446863D01*
X129727367Y-80448393D01*
X129727362Y-80448405D01*
X129471066Y-81122097D01*
X129470469Y-81123667D01*
X129469962Y-81125247D01*
X129469956Y-81125264D01*
X129424460Y-81267037D01*
X129249203Y-81813160D01*
X129064773Y-82513407D01*
X129064440Y-82515014D01*
X129064438Y-82515021D01*
X129023011Y-82714736D01*
X128917696Y-83222440D01*
X128808386Y-83938269D01*
X128798602Y-84037245D01*
X128741224Y-84617664D01*
X128737149Y-84658883D01*
X128737073Y-84660546D01*
X128737072Y-84660563D01*
X128704262Y-85380584D01*
X128704186Y-85382260D01*
X121140249Y-85382260D01*
X121192865Y-85050054D01*
X121193625Y-85045746D01*
X121227500Y-84871478D01*
X121389238Y-84039404D01*
X121390150Y-84035113D01*
X121412509Y-83938269D01*
X121620771Y-83036189D01*
X121621835Y-83031922D01*
X121887176Y-82041655D01*
X121888389Y-82037427D01*
X121897389Y-82007991D01*
X122124242Y-81265986D01*
X122188118Y-81057057D01*
X122189477Y-81052874D01*
X122523247Y-80083536D01*
X122524751Y-80079404D01*
X122892138Y-79122328D01*
X122893785Y-79118250D01*
X123156130Y-78500203D01*
X123294370Y-78174531D01*
X123296153Y-78170527D01*
X123315292Y-78129483D01*
X123729429Y-77241364D01*
X123731327Y-77237472D01*
X124196771Y-76323986D01*
X124198836Y-76320103D01*
X124500437Y-75776000D01*
X124695860Y-75423449D01*
X124698049Y-75419657D01*
X124702797Y-75411756D01*
X125226073Y-74540878D01*
X125228394Y-74537164D01*
X125786744Y-73677382D01*
X125789203Y-73673737D01*
X126377228Y-72833948D01*
X126379813Y-72830389D01*
X126457827Y-72726862D01*
X126996800Y-72011622D01*
X126999506Y-72008159D01*
X127644653Y-71211468D01*
X127647480Y-71208099D01*
X128320067Y-70434377D01*
X128323009Y-70431108D01*
X128856991Y-69858482D01*
X129022213Y-69681303D01*
X129025268Y-69678141D01*
X129750141Y-68953268D01*
X129753304Y-68950212D01*
X130503108Y-68251009D01*
X130506377Y-68248067D01*
X131280099Y-67575480D01*
X131283468Y-67572653D01*
X132080159Y-66927506D01*
X132083624Y-66924798D01*
X132902389Y-66307813D01*
X132905948Y-66305228D01*
X133745737Y-65717203D01*
X133749382Y-65714744D01*
X134179273Y-65435569D01*
X134609181Y-65156384D01*
X134612878Y-65154073D01*
X135491675Y-64626039D01*
X135495449Y-64623860D01*
X136392103Y-64126836D01*
X136395986Y-64124771D01*
X136497282Y-64073158D01*
X137309472Y-63659327D01*
X137313364Y-63657429D01*
X138242540Y-63224147D01*
X138246531Y-63222370D01*
X138770901Y-62999788D01*
X139190250Y-62821785D01*
X139194328Y-62820138D01*
X140151404Y-62452751D01*
X140155536Y-62451247D01*
X141124874Y-62117477D01*
X141129057Y-62116118D01*
X141658146Y-61954359D01*
X142109435Y-61816387D01*
X142113646Y-61815178D01*
X143103922Y-61549835D01*
X143108189Y-61548771D01*
X143331636Y-61497184D01*
X144107125Y-61318148D01*
X144111404Y-61317238D01*
X145117769Y-61121621D01*
X145122054Y-61120865D01*
X145868295Y-61002672D01*
X146134651Y-60960486D01*
X146139006Y-60959874D01*
X147156541Y-60834936D01*
X147160915Y-60834476D01*
X148182232Y-60745123D01*
X148186620Y-60744817D01*
X149210361Y-60691165D01*
X149214756Y-60691011D01*
X149462434Y-60686688D01*
X150239823Y-60673118D01*
X150244177Y-60673118D01*
X151021566Y-60686688D01*
G37*
%TD.AperFunction*%
%TD*%
M02*
